<svg xmlns="http://www.w3.org/2000/svg" width="644.806" height="740" viewBox="0 0 644.806 740">
  <g id="Group_118" data-name="Group 118" transform="translate(-101 -245)">
    <circle id="Ellipse_7" data-name="Ellipse 7" cx="31.5" cy="31.5" r="31.5" transform="translate(428 245)" fill="#ffea53"/>
    <path id="Path_98" data-name="Path 98" d="M278.424,647.265a30.584,30.584,0,0,1,11.136-27.215l470.571-377.7A30.635,30.635,0,0,1,809.5,260.4l9.541,39.422-15.91,3.85-9.672-40.084a14.278,14.278,0,0,0-23.049-8.494L299.849,632.779a14.291,14.291,0,0,0,4.913,24.735l572.517,176.5a14.278,14.278,0,0,0,18.128-16.264l-7.77-42.263,16.088-2.942,7.778,42.24A30.633,30.633,0,0,1,872.5,849.663L299.98,673.171a30.592,30.592,0,0,1-21.17-23.411C278.64,648.928,278.517,648.1,278.424,647.265Z" transform="translate(-167.227 50.344)" fill="#ffea53" stroke="#ffeb52" stroke-miterlimit="10" stroke-width="2"/>
    <circle id="Ellipse_5" data-name="Ellipse 5" cx="16" cy="16" r="16" transform="translate(101 767)" fill="#ffea53"/>
    <circle id="Ellipse_6" data-name="Ellipse 6" cx="34" cy="34" r="34" transform="translate(607 917)" fill="#ffea53"/>
    <circle id="Ellipse_8" data-name="Ellipse 8" cx="8" cy="8" r="8" transform="translate(177 565)" fill="#ffea53"/>
  </g>
</svg>
