<svg id="Group_115" data-name="Group 115" xmlns="http://www.w3.org/2000/svg" width="286.614" height="299.425" viewBox="0 0 286.614 299.425">
  <g id="Group_4" data-name="Group 4" transform="translate(7.854 58.63)">
    <g id="Group_2" data-name="Group 2">
      <path id="Path_11" data-name="Path 11" d="M298.664,277.862s29.444,16.537,47.885-9.666,21.75-34.143,38.022-29.157,23.028,34.844,7.62,60.521-65.778,29.4-91.437-1.967C270.7,260.841,298.664,277.862,298.664,277.862Z" transform="translate(-286.832 -237.633)" fill="#b05f1b"/>
    </g>
    <g id="Group_3" data-name="Group 3" transform="translate(62.389 12.831)">
      <path id="Path_12" data-name="Path 12" d="M344.265,241.076s6.457,14.677,4.687,31.337-26.974,31.65-42.475,28.956S342.521,296.727,344.265,241.076Z" transform="translate(-303.575 -241.076)" fill="#eba169"/>
    </g>
  </g>
  <g id="Group_10" data-name="Group 10" transform="translate(100.427)">
    <g id="Group_5" data-name="Group 5">
      <path id="Path_13" data-name="Path 13" d="M313.354,302.186s15.46,15.643,39.456-3.111c0,0-31.382-34.3,5.15-77.177C357.96,221.9,301.318,225.177,313.354,302.186Z" transform="translate(-311.676 -221.898)" fill="#afb0c1"/>
    </g>
    <g id="Group_6" data-name="Group 6" transform="translate(0.02 60.066)">
      <path id="Path_14" data-name="Path 14" d="M335.916,238.018a31.9,31.9,0,0,1-24.235,2.064q.05,2.722.246,5.6C332.894,248.138,335.916,238.018,335.916,238.018Z" transform="translate(-311.681 -238.018)" fill="#848595"/>
    </g>
    <g id="Group_7" data-name="Group 7" transform="translate(1.563 37.646)">
      <path id="Path_15" data-name="Path 15" d="M331.087,238.857s-12.639-1.9-17.7-6.856q-.727,2.571-1.289,5.384S319.365,242.229,331.087,238.857Z" transform="translate(-312.095 -232.001)" fill="#848595"/>
    </g>
    <g id="Group_8" data-name="Group 8" transform="translate(9.023 19.443)">
      <path id="Path_16" data-name="Path 16" d="M327.034,235s-6.83-3.976-10.3-7.888c-.913,1.215-1.8,2.508-2.638,3.875A20.314,20.314,0,0,0,327.034,235Z" transform="translate(-314.097 -227.116)" fill="#848595"/>
    </g>
    <g id="Group_9" data-name="Group 9" transform="translate(1.678)">
      <path id="Path_17" data-name="Path 17" d="M351.583,299.075s-31.382-34.3,5.149-77.177c0,0-26.009,15.922-22.744,38.279s-9.875,43.187-21.862,42.009C312.126,302.186,327.586,317.829,351.583,299.075Z" transform="translate(-312.126 -221.898)" fill="#848595"/>
    </g>
  </g>
  <g id="Group_11" data-name="Group 11" transform="translate(58.009 161.166)">
    <path id="Path_18" data-name="Path 18" d="M300.292,356.8l1.624,3.454c11.063,6.428,43.1,19.458,73.086,12.472,39.982-9.315,70.935-45.329,70.022-49.663s-2.444-31.106-5.489-35.108-11.544-14.771-11.544-14.771-21.545-9.226-28.025-7.9S360.328,283.05,349.3,289.8C338.262,296.531,300.292,356.8,300.292,356.8Z" transform="translate(-300.292 -265.15)" fill="#471d0b"/>
  </g>
  <g id="Group_12" data-name="Group 12" transform="translate(85.937 165.813)">
    <path id="Path_19" data-name="Path 19" d="M422.021,292.14c-3.685-9.848.417-15.039-10.959-18.679s-27.2-7.948-33.256-6.9-21.362,6.752-30.424,12.617A69.885,69.885,0,0,0,333.3,290.926l-25.517,54.961s13.176,13.954,10.97,30.406,43.652-1.848,45.18-2.224,16.634-7.825,20.181-10.664,23.818-25.163,23.818-25.163,5.258-19.324,8.283-25.327S425.7,301.977,422.021,292.14Z" transform="translate(-307.787 -266.397)" fill="#471d0b"/>
  </g>
  <g id="Group_15" data-name="Group 15" transform="translate(134.486 204.635)">
    <g id="Group_13" data-name="Group 13">
      <path id="Path_20" data-name="Path 20" d="M333.2,300.686c4.661-1.449,6.618-4.564,10.731-11.283,3.275-5.355-4.173-10.646-7.363-12.587a210.357,210.357,0,0,0-15.754,17.561C323.517,296.8,329.643,301.8,333.2,300.686Z" transform="translate(-320.816 -276.816)" fill="#efefef"/>
    </g>
    <g id="Group_14" data-name="Group 14" transform="translate(2.437)">
      <path id="Path_21" data-name="Path 21" d="M340.291,292.4c.581-.92,1.185-1.9,1.859-3,3.275-5.355-4.173-10.646-7.363-12.587-6.145,6.275-9.226,14.495-13.317,19.8a37.812,37.812,0,0,0,12.524-10.508C336.878,282.23,342.4,284.831,340.291,292.4Z" transform="translate(-321.47 -276.816)" fill="#c8c9ca"/>
    </g>
  </g>
  <g id="Group_18" data-name="Group 18" transform="translate(155.847 223.637)">
    <g id="Group_16" data-name="Group 16">
      <path id="Path_22" data-name="Path 22" d="M326.557,297.746c-.164-4.878,2.131-7.754,7.128-13.85,3.976-4.851,11.421.443,14.3,2.817a211.505,211.505,0,0,1-11.4,20.654C333.41,305.612,326.676,301.472,326.557,297.746Z" transform="translate(-326.549 -281.916)" fill="#efefef"/>
    </g>
    <g id="Group_17" data-name="Group 17" transform="translate(4.916)">
      <path id="Path_23" data-name="Path 23" d="M327.868,286.642c.678-.853,1.4-1.744,2.221-2.746,3.976-4.851,11.421.443,14.305,2.817-3.905,7.87-10.657,13.474-14.316,19.089a37.735,37.735,0,0,1,5.805-15.285C338.6,286.519,334.322,282.156,327.868,286.642Z" transform="translate(-327.868 -281.916)" fill="#c8c9ca"/>
    </g>
  </g>
  <g id="Group_21" data-name="Group 21" transform="translate(131.549 242.284)">
    <g id="Group_19" data-name="Group 19">
      <path id="Path_24" data-name="Path 24" d="M320.524,295.45c2.377-4.267,5.82-5.545,13.247-8.194,5.906-2.109,9.558,6.267,10.806,9.789a212.3,212.3,0,0,1-20.416,11.819C322.338,305.723,318.705,298.7,320.524,295.45Z" transform="translate(-320.028 -286.92)" fill="#efefef"/>
    </g>
    <g id="Group_20" data-name="Group 20" transform="translate(2.441)">
      <path id="Path_25" data-name="Path 25" d="M328.668,288.463c1.017-.38,2.1-.771,3.316-1.207,5.906-2.109,9.558,6.267,10.806,9.789-7.4,4.725-16.079,6.059-22.107,8.98a37.651,37.651,0,0,1,12.855-10.105C337.92,293.888,336.5,287.941,328.668,288.463Z" transform="translate(-320.683 -286.92)" fill="#c8c9ca"/>
    </g>
  </g>
  <g id="Group_24" data-name="Group 24" transform="translate(105.33 255.003)">
    <g id="Group_22" data-name="Group 22">
      <path id="Path_26" data-name="Path 26" d="M313.985,295.3c2.873-3.361,6.16-3.879,13.228-4.9,5.619-.82,7.367,7.27,7.848,10.616a189.149,189.149,0,0,1-20.241,6.852C313.765,304.748,311.79,297.866,313.985,295.3Z" transform="translate(-312.991 -290.333)" fill="#efefef"/>
    </g>
    <g id="Group_23" data-name="Group 23" transform="translate(0.833)">
      <path id="Path_27" data-name="Path 27" d="M323.44,290.868c.972-.156,2-.309,3.163-.477,5.619-.82,7.367,7.27,7.847,10.616-7.415,2.88-15.363,2.515-21.236,4.028a34.12,34.12,0,0,1,13.217-6.681C330.687,297.341,330.493,291.811,323.44,290.868Z" transform="translate(-313.215 -290.333)" fill="#c8c9ca"/>
    </g>
  </g>
  <g id="Group_27" data-name="Group 27" transform="translate(113.973 224.275)">
    <g id="Group_25" data-name="Group 25">
      <path id="Path_28" data-name="Path 28" d="M325.2,303.822c4.885.022,7.691-2.344,13.649-7.508,4.74-4.106-.756-11.4-3.208-14.227a210.272,210.272,0,0,0-20.334,11.965C317.155,297.186,321.478,303.8,325.2,303.822Z" transform="translate(-315.311 -282.087)" fill="#efefef"/>
    </g>
    <g id="Group_26" data-name="Group 26" transform="translate(1.64)">
      <path id="Path_29" data-name="Path 29" d="M334.971,298.605c.827-.7,1.707-1.442,2.683-2.292,4.74-4.106-.756-11.4-3.208-14.227-7.758,4.117-13.183,11.026-18.694,14.838a37.7,37.7,0,0,0,15.125-6.219C334.8,287.885,339.274,292.036,334.971,298.605Z" transform="translate(-315.751 -282.087)" fill="#c8c9ca"/>
    </g>
  </g>
  <g id="Group_30" data-name="Group 30" transform="translate(91.526 241.118)">
    <g id="Group_28" data-name="Group 28">
      <path id="Path_30" data-name="Path 30" d="M315.469,302.823c4.2,1.2,7.184-.175,13.552-3.193,5.071-2.4,2.083-10,.648-13.023a188.1,188.1,0,0,0-20.382,5.433C310.122,295.181,312.26,301.914,315.469,302.823Z" transform="translate(-309.287 -286.607)" fill="#efefef"/>
    </g>
    <g id="Group_29" data-name="Group 29" transform="translate(0.723)">
      <path id="Path_31" data-name="Path 31" d="M325.63,300.968c.89-.406,1.818-.842,2.862-1.338,5.071-2.4,2.083-10,.648-13.023-7.672,1.688-14,6.335-19.659,8.3A33.706,33.706,0,0,0,324,293.172C328.052,291.682,330.914,296.332,325.63,300.968Z" transform="translate(-309.481 -286.607)" fill="#c8c9ca"/>
    </g>
  </g>
  <g id="Group_33" data-name="Group 33" transform="translate(71.796 247.124)">
    <g id="Group_31" data-name="Group 31">
      <path id="Path_32" data-name="Path 32" d="M307.431,298.79c3.011,1.353,5.392.652,10.485-.9,4.054-1.248,2.657-7.259,1.915-9.673a140.108,140.108,0,0,0-15.84,1.829C304.271,292.486,305.132,297.754,307.431,298.79Z" transform="translate(-303.992 -288.219)" fill="#efefef"/>
    </g>
    <g id="Group_32" data-name="Group 32" transform="translate(0.227)">
      <path id="Path_33" data-name="Path 33" d="M315.466,298.567c.7-.2,1.45-.417,2.284-.674,4.054-1.248,2.657-7.259,1.915-9.673-5.925.417-11.164,3.2-15.613,4.054a25.626,25.626,0,0,0,11.052.294C318.295,291.9,319.923,295.686,315.466,298.567Z" transform="translate(-304.053 -288.219)" fill="#c8c9ca"/>
    </g>
  </g>
  <g id="Group_34" data-name="Group 34" transform="translate(0 51.518)">
    <path id="Path_34" data-name="Path 34" d="M317.757,429.962s30.674,17.319,64.951,1.241c55.3-20.7,53.978-50.236,53.978-50.236s47.475,33.115-1.479,56.75c-27.716,12.49-62.872,10.787-83.884,5.019a70.924,70.924,0,0,1-6.964-2.262s2.944,33.767,42.825,43.157a40.145,40.145,0,0,1-4.956-8.6s14.838,8.816,29.757,2.061c0,0-8.1-2.4-10.865-4.978,0,0,45.191-5.668,70.525-32.66s31.3-54.689,31.3-54.689,4.892-23.274,35.2-31.032c0,0-11.734-8.309-24.824-4.088,0,0,6.737-17.308,31.374-22.812,0,0-18.344-9.04-37.34-1.189,0,0,7.907-9.319,10.419-15.989,0,0-16.8,11.756-32.042,5.355,0,0-3.037-24.582-36.1-38.868s-28.319-40.422-28.319-40.422a37.546,37.546,0,0,0-13.414,25.059s-23.471-14.484-43.268-6.055c0,0,14.886,2.094,19.954,10.008,0,0-24.928.857-28.1,22.29,0,0,3.778-3.626,13.947-5.142,0,0-25.379,15.855-32.287,52.051C338.158,333.935,232.975,392.522,317.757,429.962Z" transform="translate(-284.724 -235.724)" fill="#e8973f"/>
  </g>
  <g id="Group_38" data-name="Group 38" transform="translate(53.702 98.461)">
    <g id="Group_35" data-name="Group 35" transform="translate(18.072)">
      <path id="Path_35" data-name="Path 35" d="M305.022,248.322a25.486,25.486,0,0,0-1.036,4.36,18.35,18.35,0,0,1,6.1-3.238C308.424,249.041,306.728,248.669,305.022,248.322Z" transform="translate(-303.986 -248.322)" fill="#c97624"/>
    </g>
    <g id="Group_37" data-name="Group 37" transform="translate(0 2.135)">
      <g id="Group_36" data-name="Group 36">
        <path id="Path_36" data-name="Path 36" d="M373.2,261.922c-4.289.492-9.408,1.394-13.44.563s-8.373-3.689-12.114-5.843c-4.356-2.508-11.838-5.414-20.408-7.747-1.166.95-2.534,2.15-4.039,3.585,2.068.436,4.058.913,5.813,1.39,5.571,1.513,17.461,5.53,18.862,10.381s-7.285,25.632-10.515,29.53c-4,4.814-9.4,6.58-16.846,6s-15.821-3.789-19.656-7.3a3.106,3.106,0,0,1-.559-.719c-.428,1.617-.816,3.287-1.163,5,5.369,4.248,13.5,6.025,19.555,7.005,10.806,1.755,18.806-1.554,23.464-8.995s10.389-22.719,12.755-24.507a4.551,4.551,0,0,1,6.223,1.286c1.461,2.582-.891,18.56.44,27.235s7.355,14.882,17.975,17.558c7.885,1.986,19.7,4.151,26.594-1.625,5.552-4.658,13.515-27.115,15.262-30.353a3.662,3.662,0,0,1,4.747-1.9l2.493-9.446C412.516,263.923,384.76,260.588,373.2,261.922Zm18.2,4.84c7.575,1.088,18.813,3.648,22.659,7.683s-2.333,21.862-4.158,26.046-5.194,11.059-9.513,12.561c-4.915,1.7-13.88,1.334-20.941-1.088s-11.328-6.182-13.086-12.188c-1.423-4.859.406-27.063,3.614-30.961S385.691,265.946,391.4,266.762Z" transform="translate(-299.136 -248.895)" fill="#c97624"/>
      </g>
    </g>
  </g>
  <g id="Group_39" data-name="Group 39" transform="translate(156.105 105.648)">
    <path id="Path_37" data-name="Path 37" d="M327.192,265.3s21.63,52.8,68.346,35.559-25.972-47.785-25.972-47.785S320.824,241.472,327.192,265.3Z" transform="translate(-326.618 -250.251)" fill="#c97624"/>
  </g>
  <g id="Group_40" data-name="Group 40" transform="translate(0.001 184.402)">
    <path id="Path_38" data-name="Path 38" d="M430.917,278.331c-2.075,22.514-35.134,41.867-59.984,46.156s-49.379-6.547-32.578-20.17,13.731-26.5,13.731-26.5l-32.019,18.068s-25.331-23.721-28.211-19.343c-11.935,18.161-12.3,39.326,25.9,56.194,0,0,30.674,17.319,64.951,1.241,55.3-20.7,53.978-50.236,53.978-50.236s47.475,33.115-1.479,56.75c-27.716,12.49-62.872,10.787-83.884,5.019a70.912,70.912,0,0,1-6.964-2.262c43.313,23.643,110.962,6.92,118.567-21.768S432.985,255.818,430.917,278.331Z" transform="translate(-284.724 -271.386)" fill="#c97624"/>
  </g>
  <g id="Group_41" data-name="Group 41" transform="translate(71.774 89.166)">
    <path id="Path_39" data-name="Path 39" d="M339.239,246.027c-25.088-2.124-35.253,13.455-35.253,13.455s3.779-3.626,13.947-5.142C326.947,247.614,339.239,246.027,339.239,246.027Z" transform="translate(-303.986 -245.828)" fill="#c97624"/>
  </g>
  <g id="Group_42" data-name="Group 42" transform="translate(131.303 51.518)">
    <path id="Path_40" data-name="Path 40" d="M325.843,266.677c12.885,15.3,15.728,25.129,15.728,25.129s11.965,2.351,13.686-.447a101.487,101.487,0,0,0,4.837-12.058c-2.034-1.1-4.2-2.15-6.517-3.156-33.059-14.294-28.319-40.422-28.319-40.422S312.961,251.385,325.843,266.677Z" transform="translate(-319.962 -235.724)" fill="#c97624"/>
  </g>
  <g id="Group_43" data-name="Group 43" transform="translate(152.87 88.653)">
    <path id="Path_41" data-name="Path 41" d="M405.934,282.49s-16.8,11.756-32.042,5.355c0,0-3.037-24.582-36.1-38.868a67.492,67.492,0,0,1-6.592-3.286h-.026s-16.742,24.31,8.57,39.762S388.186,302.164,405.934,282.49Z" transform="translate(-325.75 -245.69)" fill="#c97624"/>
  </g>
  <g id="Group_44" data-name="Group 44" transform="translate(59.634 142.631)">
    <path id="Path_42" data-name="Path 42" d="M501.07,260.176c-34.516.235-44.893,27.935-44.893,27.935a33.283,33.283,0,0,1,16.466,1.379c-22.376,8.678-18.746,44.185-48.489,77.851S345.99,392.9,345.99,392.9c.257,4.4,2.892,11.838,2.892,11.838-13.016-3.324-23.076-12.669-23.076-12.669-.317,9.7,2.783,12.785,2.783,12.785-16.127-8.045-27.861-31.043-27.861-31.043s2.944,33.767,42.825,43.157a40.148,40.148,0,0,1-4.956-8.6s14.838,8.816,29.757,2.061c0,0-8.1-2.4-10.866-4.978,0,0,45.191-5.668,70.526-32.66s31.3-54.689,31.3-54.689,4.892-23.274,35.2-31.032c0,0-11.734-8.309-24.824-4.088C469.7,282.988,476.433,265.68,501.07,260.176Z" transform="translate(-300.728 -260.176)" fill="#c97624"/>
  </g>
  <g id="Group_73" data-name="Group 73" transform="translate(58.486 100.315)">
    <g id="Group_58" data-name="Group 58" transform="translate(64.877 2.11)">
      <g id="Group_47" data-name="Group 47" transform="translate(1.513 4.757)">
        <g id="Group_45" data-name="Group 45" transform="translate(0 9.174)">
          <path id="Path_43" data-name="Path 43" d="M344.209,294.009h0a36.128,36.128,0,0,0,4.374-15.9,42.2,42.2,0,0,0,0-4.605h0c-.015-.32-.041-.637-.063-.958l-.011-.13c-.03-.3-.056-.6-.086-.9l-.018-.164c-.03-.3-.067-.592-.1-.879,0-.045-.015-.1-.019-.149-.041-.3-.086-.592-.13-.887l-.015-.071a34.019,34.019,0,0,0-1.047-4.52l-.049-.149c-.071-.235-.153-.466-.231-.7-.022-.071-.045-.142-.071-.212-.078-.22-.156-.436-.238-.645l-.089-.235q-.117-.313-.246-.615c-.033-.075-.067-.153-.1-.231-.086-.2-.175-.4-.265-.6-.03-.063-.06-.127-.089-.183a21.513,21.513,0,0,0-1.025-1.938l-.067-.108c-.093-.153-.186-.3-.283-.447-.06-.089-.112-.179-.171-.268-.086-.13-.179-.261-.268-.384-.067-.1-.134-.194-.209-.287-.086-.123-.175-.238-.261-.35l-.231-.287c-.086-.112-.175-.216-.268-.32s-.168-.19-.25-.283-.175-.19-.265-.283-.182-.186-.279-.28c-.082-.082-.168-.168-.253-.246-.108-.1-.224-.2-.332-.294l-.22-.194c-.183-.149-.369-.291-.555-.428-.063-.048-.13-.089-.2-.138-.13-.086-.257-.175-.391-.257-.078-.052-.16-.1-.242-.142-.119-.071-.238-.145-.361-.2-.086-.048-.168-.09-.257-.134l-.362-.171c-.093-.034-.179-.074-.265-.108-.123-.052-.25-.1-.376-.142l-.265-.086q-.2-.062-.391-.112c-.086-.022-.168-.045-.257-.063-.145-.034-.294-.063-.443-.086-.071-.015-.142-.03-.22-.041-.22-.026-.443-.048-.671-.063-7.635-.417-14.417,10.087-15.147,23.464-.022.384-.037.771-.048,1.151v.149c-.011.343-.015.682-.015,1.025v.015a35.586,35.586,0,0,0,2.407,13.31,42.422,42.422,0,0,0-5.041,2.415s19.469-3.764,31.643,6.4A20.221,20.221,0,0,0,344.209,294.009Z" transform="translate(-318.237 -253.125)" fill="#c97624"/>
        </g>
        <g id="Group_46" data-name="Group 46" transform="translate(9.193)">
          <path id="Path_44" data-name="Path 44" d="M348.155,268.177s-1.088-21.064-27.451-16.991C320.7,251.185,340.267,254.416,348.155,268.177Z" transform="translate(-320.704 -250.663)" fill="#c97624"/>
        </g>
      </g>
      <g id="Group_57" data-name="Group 57">
        <g id="Group_49" data-name="Group 49" transform="translate(2.634 9.177)">
          <g id="Group_48" data-name="Group 48">
            <path id="Path_45" data-name="Path 45" d="M333.752,251.861c-7.639-.421-14.42,10.087-15.151,23.46a36.669,36.669,0,0,0,2.347,15.654c9.994-3.968,16.734-1.547,20.93,1.759a36.131,36.131,0,0,0,4.378-15.9C346.984,263.457,341.387,252.278,333.752,251.861Z" transform="translate(-318.538 -251.849)" fill="#e1e1e1"/>
          </g>
        </g>
        <g id="Group_50" data-name="Group 50" transform="translate(5.045 24)">
          <path id="Path_46" data-name="Path 46" d="M331.906,255.835c-5.25-.283-9.912,6.934-10.411,16.127-.141,2.56,1.211,5.373-2.31,8.168,7.568-2.24,17.152-.742,20.93,1.759-1.066-2.638.227-5.958.388-8.887C341,263.809,337.156,256.122,331.906,255.835Z" transform="translate(-319.185 -255.827)" fill="#fff"/>
        </g>
        <g id="Group_51" data-name="Group 51" transform="translate(2.634 9.177)">
          <path id="Path_47" data-name="Path 47" d="M319.086,279.688c.73-13.377,7.516-23.881,15.151-23.464,5.835.317,10.478,6.934,12.017,16-.615-11.246-5.761-20-12.5-20.367-7.639-.421-14.42,10.087-15.151,23.46a40.372,40.372,0,0,0,.484,8.935A43.456,43.456,0,0,1,319.086,279.688Z" transform="translate(-318.538 -251.849)" fill="#471d0b"/>
        </g>
        <g id="Group_53" data-name="Group 53" transform="translate(8.319 27.892)">
          <g id="Group_52" data-name="Group 52">
            <path id="Path_48" data-name="Path 48" d="M327.819,256.878c-3.89-.216-7.348,5.142-7.724,11.957a18.789,18.789,0,0,0,1.2,7.981c5.094-2.023,8.533-.786,10.668.894a18.431,18.431,0,0,0,2.232-8.1C334.568,262.787,331.713,257.09,327.819,256.878Z" transform="translate(-320.064 -256.871)" fill="#471d0b"/>
          </g>
        </g>
        <g id="Group_54" data-name="Group 54" transform="translate(0 46.24)">
          <path id="Path_49" data-name="Path 49" d="M317.831,266.265s19.473-3.76,31.647,6.405C349.478,272.67,341.142,253.3,317.831,266.265Z" transform="translate(-317.831 -261.796)" fill="#471d0b"/>
        </g>
        <g id="Group_55" data-name="Group 55" transform="translate(9.193)">
          <path id="Path_50" data-name="Path 50" d="M320.3,249.908s19.563,3.234,27.451,17C347.749,266.9,346.661,245.839,320.3,249.908Z" transform="translate(-320.298 -249.386)" fill="#471d0b"/>
        </g>
        <g id="Group_56" data-name="Group 56" transform="translate(13.024 33.319)">
          <path id="Path_51" data-name="Path 51" d="M325.867,264.335c-.052,3.294-1.144-1.464-2.4-1.483s-2.195,4.71-2.139,1.412,1.11-5.955,2.366-5.936S325.923,261.037,325.867,264.335Z" transform="translate(-321.326 -258.328)" fill="#fff"/>
        </g>
      </g>
    </g>
    <g id="Group_72" data-name="Group 72">
      <g id="Group_61" data-name="Group 61" transform="translate(0 2.866)">
        <g id="Group_59" data-name="Group 59" transform="translate(0 7.948)">
          <path id="Path_52" data-name="Path 52" d="M307.485,279.046h0a30.446,30.446,0,0,1,3.35-13.463,36.135,36.135,0,0,1,1.9-3.372h0v0c.149-.224.294-.451.443-.675l.063-.093c.142-.212.287-.417.432-.622a1.3,1.3,0,0,1,.082-.116c.145-.2.291-.406.44-.6l.075-.1c.153-.2.305-.4.462-.6l.037-.045a28.648,28.648,0,0,1,2.634-2.877,1.05,1.05,0,0,1,.093-.089c.153-.145.306-.283.455-.421.052-.037.1-.082.149-.127.142-.127.287-.25.436-.376l.16-.134.436-.346c.056-.045.112-.086.164-.127.149-.112.294-.224.443-.328.045-.037.093-.071.142-.1a18.318,18.318,0,0,1,1.55-.991l.089-.056.391-.212.238-.123c.119-.06.239-.115.358-.175.089-.041.179-.082.265-.123.116-.052.231-.1.343-.145.093-.041.186-.082.287-.115s.216-.086.324-.123.2-.071.3-.108l.309-.1c.108-.033.212-.063.32-.089l.287-.078q.184-.045.369-.078l.238-.048c.194-.037.388-.063.581-.09.067,0,.13-.011.2-.019.13-.008.265-.019.391-.026.082,0,.16,0,.238,0,.119,0,.235,0,.354,0l.238.011.339.022c.078.011.16.019.238.03.112.015.22.033.332.052l.231.045a3.338,3.338,0,0,1,.335.082c.071.019.145.033.216.056.119.041.235.078.354.123.063.022.119.037.175.063.179.067.35.142.522.224,5.768,2.847,6.413,13.343,1.435,23.449-.145.291-.294.578-.44.861-.022.041-.045.078-.063.112-.134.257-.272.507-.41.756l-.011.019a29.887,29.887,0,0,1-7.251,8.756,36.35,36.35,0,0,1,2.7,3.846s-12.721-10.784-25.837-8.35A16.977,16.977,0,0,1,307.485,279.046Z" transform="translate(-300.42 -251.722)" fill="#c97624"/>
        </g>
        <g id="Group_60" data-name="Group 60" transform="translate(12.661)">
          <path id="Path_53" data-name="Path 53" d="M303.818,256.605s9.483-14.994,27.134-1.144C330.952,255.461,315.276,249.768,303.818,256.605Z" transform="translate(-303.818 -249.589)" fill="#c97624"/>
        </g>
      </g>
      <g id="Group_71" data-name="Group 71" transform="translate(3.07)">
        <g id="Group_63" data-name="Group 63" transform="translate(7.063 7.946)">
          <g id="Group_62" data-name="Group 62">
            <path id="Path_54" data-name="Path 54" d="M325.949,251.667c5.772,2.839,6.413,13.34,1.435,23.445a30.8,30.8,0,0,1-8.172,10.508c-5.69-7.028-11.633-8.03-16.071-7.341a30.311,30.311,0,0,1,3.35-13.455C311.466,254.715,320.185,248.824,325.949,251.667Z" transform="translate(-303.14 -250.952)" fill="#e1e1e1"/>
          </g>
        </g>
        <g id="Group_64" data-name="Group 64" transform="translate(7.065 19.069)">
          <path id="Path_55" data-name="Path 55" d="M319.9,254.428c3.968,1.956,4.408,9.17.988,16.12-.95,1.926-3.108,3.435-1.673,6.934-4.628-4.758-12.267-7.613-16.071-7.341,1.87-1.491,2.292-4.46,3.38-6.674C309.944,256.522,315.932,252.476,319.9,254.428Z" transform="translate(-303.14 -253.937)" fill="#fff"/>
        </g>
        <g id="Group_65" data-name="Group 65" transform="translate(12.311 7.947)">
          <path id="Path_56" data-name="Path 56" d="M321.39,278.115c4.978-10.109,4.337-20.606-1.434-23.449-4.412-2.172-10.541.764-15.408,6.778,5.086-7.989,12.472-12.285,17.562-9.777,5.772,2.839,6.413,13.34,1.435,23.445a33.9,33.9,0,0,1-4.039,6.353A36.62,36.62,0,0,0,321.39,278.115Z" transform="translate(-304.548 -250.952)" fill="#471d0b"/>
        </g>
        <g id="Group_67" data-name="Group 67" transform="translate(10.269 22.006)">
          <g id="Group_66" data-name="Group 66">
            <path id="Path_57" data-name="Path 57" d="M315.63,255.089c2.94,1.449,3.268,6.8.73,11.95A15.732,15.732,0,0,1,312.2,272.4c-2.9-3.585-5.932-4.1-8.2-3.741a15.542,15.542,0,0,1,1.71-6.864C308.245,256.643,312.69,253.643,315.63,255.089Z" transform="translate(-304 -254.726)" fill="#471d0b"/>
          </g>
        </g>
        <g id="Group_68" data-name="Group 68" transform="translate(0 35.088)">
          <path id="Path_58" data-name="Path 58" d="M327.081,269.607s-12.721-10.78-25.837-8.347C301.244,261.26,315.34,250.488,327.081,269.607Z" transform="translate(-301.244 -258.236)" fill="#471d0b"/>
        </g>
        <g id="Group_69" data-name="Group 69" transform="translate(12.662)">
          <path id="Path_59" data-name="Path 59" d="M331.772,254.693s-15.676-5.694-27.13,1.14C304.642,255.833,314.125,240.843,331.772,254.693Z" transform="translate(-304.642 -248.82)" fill="#471d0b"/>
        </g>
        <g id="Group_70" data-name="Group 70" transform="translate(15.741 26.534)">
          <path id="Path_60" data-name="Path 60" d="M305.82,259.541c-1.323,2.437,1.442-.6,2.374-.1s-.339,4.356.984,1.915,1.639-4.818.715-5.325S307.143,257.1,305.82,259.541Z" transform="translate(-305.468 -255.941)" fill="#fff"/>
        </g>
      </g>
    </g>
  </g>
  <g id="Group_74" data-name="Group 74" transform="translate(163.893 152.211)">
    <path id="Path_61" data-name="Path 61" d="M328.708,262.747a66.49,66.49,0,0,0,40.813,14.39C393.905,277.093,336.958,301.41,328.708,262.747Z" transform="translate(-328.708 -262.747)" fill="#f4b069"/>
  </g>
  <g id="Group_76" data-name="Group 76" transform="translate(4.373 186.871)">
    <g id="Group_75" data-name="Group 75">
      <path id="Path_62" data-name="Path 62" d="M312.426,308.47s-21.519-10.519-26.05-29.955c-3.633-15.568,14.26,3.756,25.5,6.1s32.19-16.984,36.479-11.622C355.512,281.924,312.426,308.47,312.426,308.47Z" transform="translate(-285.898 -272.049)" fill="#ef604a"/>
    </g>
  </g>
  <g id="Group_77" data-name="Group 77" transform="translate(4.373 186.898)">
    <path id="Path_63" data-name="Path 63" d="M346.457,272.056c-7.825,11.361-34.609,27.868-34.609,27.868s-19.369-9.483-25.219-27.067c-.835.7-1.006,2.426-.253,5.638,4.531,19.436,26.05,29.955,26.05,29.955s43.086-26.545,35.928-35.477A2.574,2.574,0,0,0,346.457,272.056Z" transform="translate(-285.897 -272.056)" fill="#e03e2e"/>
  </g>
  <g id="Group_83" data-name="Group 83" transform="translate(144.375 23.13)">
    <g id="Group_78" data-name="Group 78">
      <path id="Path_64" data-name="Path 64" d="M323.47,287s6.39,24.246,40.761,19.357c0,0-11.51-51.746,48.966-73.354C413.2,233,355.351,204.044,323.47,287Z" transform="translate(-323.47 -228.106)" fill="#afb0c1"/>
    </g>
    <g id="Group_79" data-name="Group 79" transform="translate(5.738 40.006)">
      <path id="Path_65" data-name="Path 65" d="M353.079,250.572a36.376,36.376,0,0,1-25.126-11.73c-1,1.807-1.975,3.7-2.944,5.664C344.338,258.859,353.079,250.572,353.079,250.572Z" transform="translate(-325.01 -238.842)" fill="#848595"/>
    </g>
    <g id="Group_80" data-name="Group 80" transform="translate(21.068 17.41)">
      <path id="Path_66" data-name="Path 66" d="M347.055,249.617s-11.41-9.058-13.6-16.839q-2.186,2.13-4.33,4.591S333.551,246.285,347.055,249.617Z" transform="translate(-329.124 -232.778)" fill="#848595"/>
    </g>
    <g id="Group_81" data-name="Group 81" transform="translate(39.639 4.428)">
      <path id="Path_67" data-name="Path 67" d="M344.616,242.947s-4.486-7.814-5.694-13.653q-2.392,1.023-4.814,2.333A23.161,23.161,0,0,0,344.616,242.947Z" transform="translate(-334.108 -229.294)" fill="#848595"/>
    </g>
    <g id="Group_82" data-name="Group 82" transform="translate(0 4.894)">
      <path id="Path_68" data-name="Path 68" d="M364.231,302.773s-11.51-51.745,48.966-73.354c0,0-34.762.95-44.241,24.9s-34.311,37.072-45.486,29.094C323.47,283.415,329.86,307.661,364.231,302.773Z" transform="translate(-323.47 -229.419)" fill="#848595"/>
    </g>
  </g>
  <g id="Group_84" data-name="Group 84" transform="translate(79.916 69.375)">
    <path id="Path_69" data-name="Path 69" d="M326.125,251.671c8.667-.313,12.062.693,12.062.693-15.311-17.018-32.015-10.7-32.015-10.7S321.057,243.757,326.125,251.671Z" transform="translate(-306.171 -240.516)" fill="#c97624"/>
  </g>
  <g id="Group_85" data-name="Group 85" transform="translate(61.65 200.08)">
    <path id="Path_70" data-name="Path 70" d="M301.269,303s41.838,6.886,61.706-17.606S317.549,288.252,301.269,303Z" transform="translate(-301.269 -275.594)" fill="#f4b069"/>
  </g>
  <g id="Group_86" data-name="Group 86" transform="translate(17.495 160.806)">
    <path id="Path_71" data-name="Path 71" d="M289.419,291.533s10.18-20.024,30.48-25.55S326.185,280.977,289.419,291.533Z" transform="translate(-289.419 -265.054)" fill="#f4b069"/>
  </g>
  <g id="Group_87" data-name="Group 87" transform="translate(53.562 99.31)" opacity="0.31">
    <path id="Path_72" data-name="Path 72" d="M329.115,251.4c-7.378-2-18.713-4.106-23.844-1.926s-5.47,11.954-5.455,16.514-2.228,20.934,1.144,24.023c3.834,3.514,12.214,6.722,19.656,7.3s12.848-1.189,16.846-6c3.23-3.9,11.912-24.686,10.515-29.534S334.685,252.913,329.115,251.4Z" transform="translate(-299.099 -248.55)" fill="#fff"/>
  </g>
  <g id="Group_88" data-name="Group 88" transform="translate(58.129 99.317)" opacity="0.51">
    <path id="Path_73" data-name="Path 73" d="M309.3,248.579a18.127,18.127,0,0,0-7.37.891,5.5,5.5,0,0,0-1.606,1.062l12.58,46.164a37.677,37.677,0,0,0,4.371.615,28.874,28.874,0,0,0,5.619-.071Z" transform="translate(-300.324 -248.552)" fill="#fff"/>
  </g>
  <g id="Group_89" data-name="Group 89" transform="translate(71.875 99.765)" opacity="0.51">
    <path id="Path_74" data-name="Path 74" d="M309.1,249.514c-1.677-.328-3.391-.622-5.083-.842l13.034,47.285a15.391,15.391,0,0,0,3.9-2.053Z" transform="translate(-304.013 -248.672)" fill="#fff"/>
  </g>
  <g id="Group_91" data-name="Group 91" transform="translate(180.513 137.569)">
    <path id="Path_75" data-name="Path 75" d="M333.457,276.331l1.192-1.755,7,4.732-1.189,1.759a1.712,1.712,0,0,1-2.359.459l-4.188-2.836A1.708,1.708,0,0,1,333.457,276.331Z" transform="translate(-333.168 -215.857)" fill="#c2c1c0"/>
    <path id="Path_76" data-name="Path 76" d="M336.811,278.6,338,276.841l-3.353-2.265-1.192,1.755a1.708,1.708,0,0,0,.454,2.359l3.357,2.269A1.7,1.7,0,0,1,336.811,278.6Z" transform="translate(-333.168 -215.857)" fill="#acacad"/>
    <path id="Path_77" data-name="Path 77" d="M369.482,270.218a13.628,13.628,0,0,0-5.776-8.719c-7.821-5.3-15.829-1.107-15.829-1.107-6.312,9.323-5.887,8.693-5.9,8.719,0,0-.917,8.995,6.9,14.286a11.441,11.441,0,0,0,5.623,1.964c-.961,1.427-19.361,28.6-20.889,30.86a1.039,1.039,0,0,0,.283,1.446l6.961,4.718a1.021,1.021,0,0,0,1.427-.268c.8-1.181,21.876-32.313,22.815-33.7C365.1,288.42,371.658,278.836,369.482,270.218Z" transform="translate(-332.442 -258.818)" fill="#ecebeb"/>
    <path id="Path_78" data-name="Path 78" d="M340.688,270.266c.007-.011,2.038-2.918.831-5.347a1,1,0,0,0-1.353-.458,1.018,1.018,0,0,0-.458,1.36c.768,1.543-1.189,4.032-1.207,4.062A11.374,11.374,0,0,0,340.688,270.266Z" transform="translate(-318.631 -243.723)" fill="#c2c1c0"/>
    <path id="Path_79" data-name="Path 79" d="M342.405,269.737a13.356,13.356,0,0,0-.134-5.537,10.038,10.038,0,0,0-.4-1.483,1.012,1.012,0,1,1,1.912-.663,15.811,15.811,0,0,1,.619,8.019,1.013,1.013,0,1,1-2-.336Z" transform="translate(-309.594 -251.846)" fill="#545454"/>
    <path id="Path_80" data-name="Path 80" d="M341.021,261.6a1.912,1.912,0,1,1-2.653.51A1.913,1.913,0,0,1,341.021,261.6Z" transform="translate(-319.892 -252.126)" fill="#545454"/>
    <path id="Path_81" data-name="Path 81" d="M340.993,266.413a1.01,1.01,0,1,1,.928,1.4A1,1,0,0,1,340.993,266.413Z" transform="translate(-312.061 -239.818)" fill="#545454"/>
    <g id="Group_90" data-name="Group 90" transform="translate(0.991)">
      <path id="Path_82" data-name="Path 82" d="M359.088,262.765a14.484,14.484,0,0,0-1.606-1.267c-7.821-5.3-15.829-1.107-15.829-1.107-6.312,9.323-5.888,8.693-5.9,8.719,0,0-.917,8.995,6.9,14.286a11.087,11.087,0,0,0,1.71.961,13.126,13.126,0,0,1-1.807-16.891l.1-.138A13.118,13.118,0,0,1,359.088,262.765Z" transform="translate(-327.208 -258.818)" fill="#d6d6d5"/>
      <path id="Path_83" data-name="Path 83" d="M336.984,303c2.575-3.8,18.005-26.594,20.893-30.857,3.249-4.8-2.545-7.635-2.545-7.635.831,1.665.156,3.894-.831,5.347h0c-1.226,1.815-19.663,29.046-20.889,30.86a1.032,1.032,0,0,0,.283,1.446l3.368,2.288A1.041,1.041,0,0,1,336.984,303Z" transform="translate(-333.434 -243.31)" fill="#d6d6d5"/>
    </g>
    <path id="Path_84" data-name="Path 84" d="M336.57,269.443a1.91,1.91,0,0,1-.514-2.657l4.553-6.726a1.912,1.912,0,0,1,3.167,2.142l-4.553,6.726A1.913,1.913,0,0,1,336.57,269.443Z" transform="translate(-326.195 -257.723)" fill="#545454"/>
    <path id="Path_85" data-name="Path 85" d="M339.443,262.768a1.913,1.913,0,0,1-.514-2.657l-2.873,4.244a1.912,1.912,0,1,0,3.167,2.143l2.873-4.244A1.909,1.909,0,0,1,339.443,262.768Z" transform="translate(-326.195 -255.292)" fill="#424343"/>
    <path id="Path_86" data-name="Path 86" d="M337.793,277.815l-3.015-2.046a1.01,1.01,0,1,1,1.133-1.673l3.014,2.038a1.013,1.013,0,1,1-1.133,1.681Z" transform="translate(-329.996 -217.639)" fill="#c2c1c0"/>
  </g>
  <g id="Group_94" data-name="Group 94" transform="translate(53.562 99.31)">
    <g id="Group_93" data-name="Group 93">
      <g id="Group_92" data-name="Group 92">
        <path id="Path_87" data-name="Path 87" d="M347.977,261.778c-1.4-4.852-13.291-8.865-18.862-10.377-7.378-2-18.713-4.106-23.844-1.926s-5.47,11.954-5.455,16.514-2.228,20.934,1.144,24.023c3.834,3.514,12.214,6.722,19.656,7.3s12.848-1.189,16.846-6C340.692,287.414,349.374,266.626,347.977,261.778Zm-11.6,28.706c-3.752,4.516-8.82,6.167-15.8,5.63s-14.834-3.559-18.43-6.849c-3.163-2.9-.894-18.787-.909-23.069s.3-13.44,5.112-15.486,15.437-.075,22.361,1.8c5.22,1.42,16.369,5.187,17.681,9.737S339.4,286.829,336.373,290.484Z" transform="translate(-299.099 -248.55)" fill="#151b24"/>
      </g>
    </g>
  </g>
  <g id="Group_98" data-name="Group 98" transform="translate(172.258 77.655)">
    <g id="Group_96" data-name="Group 96">
      <g id="Group_95" data-name="Group 95">
        <path id="Path_88" data-name="Path 88" d="M433.833,272.278s-26.959,20.337-48.75-3.152-26.132-30.916-41.592-23.8-18.139,37.62.574,61,69.128,20.311,90.345-14.219C459.264,251.661,433.833,272.278,433.833,272.278Z" transform="translate(-330.953 -242.738)" fill="#e8973f"/>
      </g>
    </g>
    <g id="Group_97" data-name="Group 97" transform="translate(14.476 5.807)">
      <path id="Path_89" data-name="Path 89" d="M334.838,248.646s12.818-12.438,24.22,4.751,25.524,29.638,46.313,24.481S370.5,317.763,334.838,248.646Z" transform="translate(-334.838 -244.297)" fill="#f4b069"/>
    </g>
  </g>
  <g id="Group_101" data-name="Group 101" transform="translate(45.46 92.841)">
    <g id="Group_100" data-name="Group 100">
      <g id="Group_99" data-name="Group 99">
        <path id="Path_90" data-name="Path 90" d="M379.232,264.186c-4.289.492-9.409,1.394-13.44.559s-8.373-3.689-12.114-5.839c-10.083-5.805-36.889-13.746-55.3-11.79l-1.457,9.658a3.664,3.664,0,0,1,3.6,3.626c.32,3.667-2.832,27.123.417,33.6,4.039,8.037,15.747,10.731,23.777,12.035,10.806,1.751,18.806-1.554,23.464-9s10.388-22.719,12.755-24.507a4.546,4.546,0,0,1,6.219,1.286c1.464,2.582-.887,18.556.443,27.235s7.355,14.882,17.975,17.558c7.885,1.986,19.7,4.151,26.594-1.625,5.552-4.658,13.515-27.115,15.262-30.353a3.665,3.665,0,0,1,4.747-1.9l2.493-9.446C418.547,266.191,390.79,262.852,379.232,264.186ZM343.39,296.045c-4,4.814-9.4,6.577-16.846,6s-15.821-3.789-19.656-7.3c-3.372-3.089-1.129-19.458-1.144-24.023s.321-14.335,5.455-16.514,16.466-.078,23.844,1.926c5.571,1.513,17.461,5.526,18.862,10.377S346.62,292.147,343.39,296.045Zm72.545,6.711c-1.822,4.181-5.191,11.056-9.513,12.554-4.915,1.7-13.88,1.338-20.941-1.088s-11.328-6.178-13.086-12.181c-1.424-4.859.406-27.063,3.615-30.961s15.713-2.873,21.426-2.057c7.575,1.088,18.814,3.652,22.659,7.687S417.76,298.571,415.935,302.756Z" transform="translate(-296.924 -246.814)" fill="#212939"/>
      </g>
    </g>
  </g>
  <g id="Group_106" data-name="Group 106" transform="translate(45.46 93.132)">
    <g id="Group_105" data-name="Group 105">
      <g id="Group_102" data-name="Group 102" transform="translate(9.789 3.988)">
        <path id="Path_91" data-name="Path 91" d="M347.2,261.189c-1.4-4.848-13.3-8.865-18.862-10.377-7.382-2-18.717-4.106-23.848-1.926-2.951,1.256-4.315,5.027-4.937,8.868.76-3.011,2.1-5.667,4.486-6.677C309.168,248.9,320.5,251,327.881,253c5.571,1.513,17.461,5.526,18.862,10.377a8.2,8.2,0,0,1,.074,3.328A11.259,11.259,0,0,0,347.2,261.189Z" transform="translate(-299.551 -247.962)" fill="#12171e"/>
      </g>
      <g id="Group_103" data-name="Group 103">
        <path id="Path_92" data-name="Path 92" d="M432.632,282.321a3.66,3.66,0,0,0-4.743,1.9c-1.751,3.238-9.714,25.7-15.263,30.357-6.893,5.772-18.713,3.607-26.6,1.621-10.616-2.679-16.649-8.88-17.979-17.558s1.032-24.652-.436-27.235a4.548,4.548,0,0,0-6.219-1.286c-2.37,1.789-8.1,17.07-12.759,24.507s-12.658,10.746-23.464,9c-8.026-1.3-19.738-4-23.773-12.032-3.249-6.476-.1-29.932-.421-33.6a3.66,3.66,0,0,0-3.6-3.629l1.125-7.478-.123.011-1.457,9.658a3.664,3.664,0,0,1,3.6,3.626c.32,3.667-2.832,27.123.417,33.6,4.039,8.037,15.747,10.731,23.777,12.035,10.806,1.751,18.806-1.554,23.464-8.995s10.388-22.719,12.755-24.507a4.546,4.546,0,0,1,6.219,1.286c1.464,2.582-.887,18.556.443,27.235s7.355,14.882,17.975,17.558c7.885,1.986,19.7,4.151,26.594-1.625,5.552-4.658,13.515-27.115,15.262-30.354a3.665,3.665,0,0,1,4.747-1.9l2.493-9.446-.112-.056Z" transform="translate(-296.924 -246.892)" fill="#12171e"/>
      </g>
      <g id="Group_104" data-name="Group 104" transform="translate(77.695 18.966)">
        <path id="Path_93" data-name="Path 93" d="M363.7,260.429c-3.849-4.035-15.091-6.6-22.663-7.68-5.708-.824-18.221-1.848-21.426,2.046a11.278,11.278,0,0,0-1.841,5.22,8.131,8.131,0,0,1,1.39-3.026c3.2-3.9,15.713-2.873,21.426-2.057,7.575,1.088,18.813,3.652,22.659,7.687,1.785,1.874,1.967,4.848,1.468,7.911C365.672,266.753,365.917,262.751,363.7,260.429Z" transform="translate(-317.775 -251.982)" fill="#12171e"/>
      </g>
    </g>
  </g>
  <g id="Group_107" data-name="Group 107" transform="translate(120.441 114.288)" opacity="0.31">
    <path id="Path_94" data-name="Path 94" d="M365.235,261.018c-3.845-4.035-15.084-6.6-22.659-7.687-5.712-.816-18.221-1.841-21.426,2.057s-5.038,26.1-3.615,30.961c1.759,6,6.025,9.77,13.086,12.181s16.026,2.791,20.941,1.088c4.323-1.5,7.691-8.373,9.513-12.554S369.08,265.05,365.235,261.018Z" transform="translate(-317.047 -252.57)" fill="#fff"/>
  </g>
  <g id="Group_108" data-name="Group 108" transform="translate(128.263 114.289)" opacity="0.51">
    <path id="Path_95" data-name="Path 95" d="M341.6,300.5l-13.284-47.9a39.923,39.923,0,0,0-7.557.406l-.011,0a5.582,5.582,0,0,0-1.6,1.07l12.553,46.1A39.755,39.755,0,0,0,341.6,300.5Z" transform="translate(-319.146 -252.57)" fill="#fff"/>
  </g>
  <g id="Group_109" data-name="Group 109" transform="translate(142.15 114.603)" opacity="0.51">
    <path id="Path_96" data-name="Path 96" d="M326.692,253.1c-1.069-.153-2.377-.313-3.819-.447l12.811,46.734a9.369,9.369,0,0,0,3.663-2.642l-11.48-43.466C327.467,253.22,327.073,253.157,326.692,253.1Z" transform="translate(-322.873 -252.654)" fill="#fff"/>
  </g>
  <g id="Group_112" data-name="Group 112" transform="translate(120.441 114.287)">
    <g id="Group_111" data-name="Group 111">
      <g id="Group_110" data-name="Group 110">
        <path id="Path_97" data-name="Path 97" d="M317.536,286.35c1.759,6,6.021,9.766,13.082,12.181s16.026,2.791,20.941,1.088c4.322-1.5,7.695-8.373,9.517-12.554s8-22.014,4.155-26.046-15.087-6.6-22.655-7.687c-5.712-.816-18.221-1.844-21.429,2.057S316.112,281.491,317.536,286.35Zm4.874-29.906c3.007-3.652,14.741-2.69,20.1-1.923,7.1,1.021,17.636,3.421,21.243,7.2s-2.347,21.045-4.058,24.969-4.87,10.366-8.924,11.775c-4.606,1.595-13.016,1.248-19.633-1.025s-10.62-5.79-12.27-11.421C317.528,281.465,319.406,260.1,322.41,256.443Z" transform="translate(-317.047 -252.569)" fill="#151b24"/>
      </g>
    </g>
  </g>
</svg>
