<svg xmlns="http://www.w3.org/2000/svg" width="364.02" height="116.859" viewBox="0 0 364.02 116.859">
  <g id="Group_114" data-name="Group 114" transform="translate(-277.219 -221.898)">
    <g id="Group_1" data-name="Group 1" transform="translate(364.88 261.521)">
      <path id="Path_1" data-name="Path 1" d="M506.027,288.028a32.572,32.572,0,0,1-.328,4.938,31.382,31.382,0,0,1-1.09,4.54,16.194,16.194,0,0,1-2.252,4.539,11.882,11.882,0,0,1-3.921,3.488,13.824,13.824,0,0,1-11.731.145,12.491,12.491,0,0,1-3.849-3.086,13.552,13.552,0,0,1-2.325-4.1,27.508,27.508,0,0,1-1.162-4.249,26.661,26.661,0,0,1-.436-3.522q-.072-1.525-.073-1.962V272.048c0-.291.025-.931.073-1.925a27.705,27.705,0,0,1,.436-3.524,26.2,26.2,0,0,1,1.162-4.248,14.154,14.154,0,0,1,2.325-4.1,12.293,12.293,0,0,1,3.849-3.124,12.125,12.125,0,0,1,5.738-1.234,12.887,12.887,0,0,1,4.721.8,11.024,11.024,0,0,1,3.488,2.144,12.922,12.922,0,0,1,2.433,3.049,18.967,18.967,0,0,1,1.562,3.452,29.836,29.836,0,0,1,1.381,9.443h-3.561c0-.146-.012-.618-.036-1.418s-.109-1.767-.255-2.9a22.532,22.532,0,0,0-.8-3.631,12.724,12.724,0,0,0-1.708-3.56,9.619,9.619,0,0,0-2.868-2.724,8.077,8.077,0,0,0-4.358-1.09,7.87,7.87,0,0,0-5.629,1.889,12.568,12.568,0,0,0-3.013,4.321,16.247,16.247,0,0,0-1.235,4.757q-.219,2.326-.218,3.2v17.141c0,.145.011.618.036,1.417a23.479,23.479,0,0,0,.29,2.834,23.053,23.053,0,0,0,.835,3.449,11.468,11.468,0,0,0,1.708,3.342,9.4,9.4,0,0,0,2.87,2.542,8.514,8.514,0,0,0,4.357,1.017,8.078,8.078,0,0,0,4.358-1.09,9.6,9.6,0,0,0,2.868-2.724,12.7,12.7,0,0,0,1.708-3.558,22.517,22.517,0,0,0,.8-3.633q.219-1.705.255-2.9t.036-1.417Z" transform="translate(-317.021 -253.89)" fill="#fff"/>
      <path id="Path_2" data-name="Path 2" d="M528.824,293.7h-3.633l-1.525-5.738H510.083l-1.527,5.738h-3.63l10.315-38.932h3.34Zm-17.8-9.3h11.621L516.837,262.4Z" transform="translate(-310.804 -253.68)" fill="#fff"/>
      <path id="Path_3" data-name="Path 3" d="M526.795,263.9a9.021,9.021,0,0,1,.909-4.031,9.557,9.557,0,0,1,2.468-3.158,11.419,11.419,0,0,1,3.706-2.035,14.3,14.3,0,0,1,4.612-.726,13.291,13.291,0,0,1,5.193.908,10.151,10.151,0,0,1,3.6,2.506,11.278,11.278,0,0,1,2.252,3.851,19.313,19.313,0,0,1,1.017,4.866h-3.776a10.966,10.966,0,0,0-2.216-6.174q-1.927-2.4-6.065-2.4a10.667,10.667,0,0,0-2.834.4,8.555,8.555,0,0,0-2.65,1.234,6.669,6.669,0,0,0-1.925,2.034,4.3,4.3,0,0,0-.581,2.724,5.383,5.383,0,0,0,.472,1.707,5.949,5.949,0,0,0,1.27,1.781,9.4,9.4,0,0,0,2.362,1.634,14.19,14.19,0,0,0,3.813,1.2,21.448,21.448,0,0,1,4.9,1.707,16.135,16.135,0,0,1,3.451,2.288,10.769,10.769,0,0,1,2.141,2.541,7.943,7.943,0,0,1,.981,2.4,5.35,5.35,0,0,1,.182,1.126q.035.619.036,1.126a8.752,8.752,0,0,1-.945,4.031,10.344,10.344,0,0,1-2.577,3.231,12.52,12.52,0,0,1-3.815,2.18,13.152,13.152,0,0,1-4.575.8,13.544,13.544,0,0,1-5.23-.909,10.035,10.035,0,0,1-3.631-2.506,10.733,10.733,0,0,1-2.214-3.851,20.258,20.258,0,0,1-.981-4.865h3.7a11.35,11.35,0,0,0,2.286,6.173q1.927,2.4,6.066,2.4a9.363,9.363,0,0,0,2.906-.472,10.036,10.036,0,0,0,2.65-1.308,7.091,7.091,0,0,0,1.961-2.034,4.963,4.963,0,0,0,.763-2.725,6.214,6.214,0,0,0-.29-1.814A6.991,6.991,0,0,0,543.9,276.5a14.569,14.569,0,0,0-6.211-2.651,19.289,19.289,0,0,1-5.448-2.07,13.777,13.777,0,0,1-3.3-2.652,7.888,7.888,0,0,1-1.634-2.759A10.734,10.734,0,0,1,526.795,263.9Z" transform="translate(-305.743 -253.876)" fill="#fff"/>
      <path id="Path_4" data-name="Path 4" d="M577.032,254.769v3.56h-13v47.285h-3.558V258.329H547.4v-3.56Z" transform="translate(-300.673 -253.68)" fill="#fff"/>
      <path id="Path_5" data-name="Path 5" d="M377.173,285.457c0,.244-.012.933-.037,2.07a31.9,31.9,0,0,1-.4,4.067,31.433,31.433,0,0,1-1.235,5.012,18.1,18.1,0,0,1-2.47,4.89,13.5,13.5,0,0,1-4.1,3.739,11.882,11.882,0,0,1-6.211,1.5,13.611,13.611,0,0,1-6.107-1.235,13,13,0,0,1-4.127-3.161,13.737,13.737,0,0,1-2.494-4.212,28.142,28.142,0,0,1-1.248-4.358,25.516,25.516,0,0,1-.478-3.631q-.072-1.561-.072-2V272.673q0-.435.072-1.961a25.546,25.546,0,0,1,.478-3.6,29.317,29.317,0,0,1,1.248-4.394,13.637,13.637,0,0,1,2.494-4.249,13.5,13.5,0,0,1,4.127-3.2,13.289,13.289,0,0,1,6.107-1.271,11.856,11.856,0,0,1,6.247,1.541,13.429,13.429,0,0,1,4.14,3.849,18.309,18.309,0,0,1,2.432,5,35.3,35.3,0,0,1,1.2,5.048,31.832,31.832,0,0,1,.4,3.994q.037,1.635.037,1.853h-7.046v-1.344a23.992,23.992,0,0,0-.182-2.688,28.767,28.767,0,0,0-.617-3.378,12.884,12.884,0,0,0-1.272-3.306,8.227,8.227,0,0,0-2.143-2.5,5.042,5.042,0,0,0-3.2-1.018,5.659,5.659,0,0,0-4.176,1.484,9.412,9.412,0,0,0-2.216,3.437,15.142,15.142,0,0,0-.908,3.8q-.182,1.847-.182,2.57v15.775c0,.145.012.533.037,1.158s.1,1.375.218,2.243a17.2,17.2,0,0,0,.617,2.712,9.85,9.85,0,0,0,1.272,2.642,7.027,7.027,0,0,0,2.106,2.027,5.992,5.992,0,0,0,3.233.8,5.041,5.041,0,0,0,3.2-1.017,8.217,8.217,0,0,0,2.143-2.506,12.832,12.832,0,0,0,1.272-3.306,28.719,28.719,0,0,0,.617-3.377,23.955,23.955,0,0,0,.182-2.688v-1.344Z" transform="translate(-348.191 -253.862)" fill="#fff"/>
      <path id="Path_6" data-name="Path 6" d="M401.125,294.573h-7.409l-1.308-5.3h-9.588l-1.381,5.3h-7.263l10.6-39.8h5.811ZM384.71,282.226h5.738q-.437-1.672-.763-2.906t-.654-2.434q-.327-1.2-.69-2.506t-.8-3.2Z" transform="translate(-341.992 -253.68)" fill="#fff"/>
      <path id="Path_7" data-name="Path 7" d="M400.208,254.769l7.046.072q3.34,0,6.465.183a13.12,13.12,0,0,1,5.592,1.525,9.674,9.674,0,0,1,3.958,4.249,18.343,18.343,0,0,1,1.49,8.208,21.252,21.252,0,0,1-.69,6.028,9.338,9.338,0,0,1-2.361,3.922,9.844,9.844,0,0,1,3.776,4.321,19.3,19.3,0,0,1,1.308,7.954,18.953,18.953,0,0,1-.907,6.319,11.805,11.805,0,0,1-2.389,4.14,10,10,0,0,1-3.442,2.434,16.914,16.914,0,0,1-4.019,1.163,26.289,26.289,0,0,1-4.092.326H400.208Zm7.046,21.864q1.587,0,3.427-.182a10.138,10.138,0,0,0,3.426-.939,6.406,6.406,0,0,0,2.6-2.276,7.668,7.668,0,0,0,1.009-4.266,8.305,8.305,0,0,0-.866-4.155,5.231,5.231,0,0,0-2.343-2.17,8.6,8.6,0,0,0-3.319-.757q-1.839-.074-3.786-.073h-.145Zm0,7.045v14.891h1.011q1.588,0,3.574-.073a12,12,0,0,0,3.755-.727,6.69,6.69,0,0,0,2.961-2.141,6.919,6.919,0,0,0,1.191-4.4,8.487,8.487,0,0,0-.975-4.467,5.678,5.678,0,0,0-2.528-2.252,9.592,9.592,0,0,0-3.574-.762q-2.023-.072-4.117-.073Z" transform="translate(-335.783 -253.68)" fill="#fff"/>
      <path id="Path_8" data-name="Path 8" d="M425.51,254.769h7.917a62.31,62.31,0,0,1,6.756.364,15.121,15.121,0,0,1,6.029,1.923,11.266,11.266,0,0,1,4.321,4.723,19.1,19.1,0,0,1,1.634,8.678,16.46,16.46,0,0,1-1.779,8.245,13.27,13.27,0,0,1-4.467,4.758,17.808,17.808,0,0,1,2.833,4.285v-.073q1.234,1.817,3.233,4.321a30.647,30.647,0,0,0,4.794,4.757A29.2,29.2,0,0,0,463.1,300.6a18.491,18.491,0,0,0,7.737,1.6,14.592,14.592,0,0,0,4.647-.726,21.974,21.974,0,0,0,3.852-1.671,26.184,26.184,0,0,0,3.558-2.47l3.7,6.1a29.916,29.916,0,0,1-4.5,2.907,31.911,31.911,0,0,1-4.975,2,20.737,20.737,0,0,1-6.283.909,25.372,25.372,0,0,1-9.879-1.853,34.157,34.157,0,0,1-7.845-4.5,37.228,37.228,0,0,1-5.884-5.629q-2.469-2.976-3.994-5.229a42.456,42.456,0,0,0-3.086-3.96,6.011,6.011,0,0,0-3.67-2.143,14.932,14.932,0,0,1-1.632.072h-2.289v19.612H425.51Zm7.046,7.046v17.213h.871a34.557,34.557,0,0,0,3.633-.217,11.874,11.874,0,0,0,3.813-1.054,7.749,7.749,0,0,0,3.015-2.543,8,8,0,0,0,1.235-4.757,9.542,9.542,0,0,0-1.018-4.794,6.409,6.409,0,0,0-2.688-2.579,10.861,10.861,0,0,0-3.739-1.052,40.693,40.693,0,0,0-4.251-.218Z" transform="translate(-329.747 -253.68)" fill="#fff"/>
      <path id="Path_9" data-name="Path 9" d="M479.082,294.573h-7.408l-1.309-5.3h-9.586l-1.381,5.3h-7.263l10.6-39.8h5.811Zm-16.416-12.347H468.4q-.435-1.672-.762-2.906t-.653-2.434q-.327-1.2-.69-2.506t-.8-3.2Z" transform="translate(-323.396 -253.68)" fill="#fff"/>
    </g>
    <g id="Group_113" data-name="Group 113" transform="translate(278.227 221.898)">
      <path id="Path_10" data-name="Path 10" d="M278.259,301.715a4.919,4.919,0,0,1,1.791-4.377l75.681-60.744a4.927,4.927,0,0,1,7.94,2.9l1.535,6.34-2.559.619-1.556-6.447a2.3,2.3,0,0,0-3.707-1.366L281.7,299.385a2.3,2.3,0,0,0,.79,3.978l92.077,28.386a2.3,2.3,0,0,0,2.916-2.616l-1.25-6.8,2.587-.473,1.251,6.793a4.927,4.927,0,0,1-6.273,5.609l-92.077-28.385a4.92,4.92,0,0,1-3.4-3.765C278.294,301.982,278.274,301.848,278.259,301.715Z" transform="translate(-278.227 -218.656)" fill="#ffea53" stroke="#ffeb52" stroke-miterlimit="10" stroke-width="2"/>
      <g id="Group_4" data-name="Group 4" transform="translate(10.657 19.488)">
        <g id="Group_2" data-name="Group 2">
          <path id="Path_11" data-name="Path 11" d="M290.764,251s9.787,5.5,15.916-3.213,7.229-11.349,12.638-9.692,7.654,11.582,2.533,20.116-21.864,9.773-30.392-.654C281.469,245.347,290.764,251,290.764,251Z" transform="translate(-286.832 -237.633)" fill="#b05f1b"/>
        </g>
        <g id="Group_3" data-name="Group 3" transform="translate(20.737 4.265)">
          <path id="Path_12" data-name="Path 12" d="M317.1,241.076a22.856,22.856,0,0,1,1.558,10.416c-.588,5.54-8.966,10.52-14.118,9.625S316.52,259.574,317.1,241.076Z" transform="translate(-303.575 -241.076)" fill="#eba169"/>
        </g>
      </g>
      <g id="Group_10" data-name="Group 10" transform="translate(41.427)">
        <g id="Group_5" data-name="Group 5">
          <path id="Path_13" data-name="Path 13" d="M312.233,248.585s5.139,5.2,13.115-1.034c0,0-10.431-11.4,1.712-25.653C327.06,221.9,308.233,222.988,312.233,248.585Z" transform="translate(-311.676 -221.898)" fill="#afb0c1"/>
        </g>
        <g id="Group_6" data-name="Group 6" transform="translate(0.007 19.965)">
          <path id="Path_14" data-name="Path 14" d="M319.736,238.018a10.6,10.6,0,0,1-8.055.686q.017.9.082,1.86C318.732,241.382,319.736,238.018,319.736,238.018Z" transform="translate(-311.681 -238.018)" fill="#848595"/>
        </g>
        <g id="Group_7" data-name="Group 7" transform="translate(0.519 12.513)">
          <path id="Path_15" data-name="Path 15" d="M318.408,234.28s-4.2-.63-5.884-2.279q-.242.855-.429,1.79A7.91,7.91,0,0,0,318.408,234.28Z" transform="translate(-312.095 -232.001)" fill="#848595"/>
        </g>
        <g id="Group_8" data-name="Group 8" transform="translate(2.999 6.463)">
          <path id="Path_16" data-name="Path 16" d="M318.4,229.738a17.134,17.134,0,0,1-3.423-2.622c-.3.4-.6.834-.877,1.288A6.752,6.752,0,0,0,318.4,229.738Z" transform="translate(-314.097 -227.116)" fill="#848595"/>
        </g>
        <g id="Group_9" data-name="Group 9" transform="translate(0.558)">
          <path id="Path_17" data-name="Path 17" d="M325.241,247.551s-10.431-11.4,1.712-25.653c0,0-8.645,5.292-7.56,12.724s-3.282,14.355-7.267,13.963C312.126,248.585,317.265,253.784,325.241,247.551Z" transform="translate(-312.126 -221.898)" fill="#848595"/>
        </g>
      </g>
      <g id="Group_11" data-name="Group 11" transform="translate(27.328 53.57)">
        <path id="Path_18" data-name="Path 18" d="M300.292,295.613l.54,1.148c3.677,2.136,14.326,6.468,24.293,4.145,13.289-3.1,23.578-15.067,23.275-16.507s-.812-10.339-1.824-11.669-3.837-4.91-3.837-4.91-7.161-3.067-9.315-2.627-13.176,5.907-16.843,8.15S300.292,295.613,300.292,295.613Z" transform="translate(-300.292 -265.15)" fill="#471d0b"/>
      </g>
      <g id="Group_12" data-name="Group 12" transform="translate(36.611 55.114)">
        <path id="Path_19" data-name="Path 19" d="M345.757,274.954c-1.225-3.273.139-5-3.643-6.209s-9.04-2.642-11.054-2.3a36.208,36.208,0,0,0-10.113,4.194,23.229,23.229,0,0,0-4.679,3.906l-8.482,18.268s4.379,4.638,3.646,10.106,14.509-.614,15.017-.739a46.357,46.357,0,0,0,6.708-3.545c1.179-.943,7.917-8.364,7.917-8.364a75.263,75.263,0,0,1,2.753-8.418C344.835,279.862,346.981,278.224,345.757,274.954Z" transform="translate(-307.787 -266.397)" fill="#471d0b"/>
      </g>
      <g id="Group_15" data-name="Group 15" transform="translate(52.748 68.018)">
        <g id="Group_13" data-name="Group 13">
          <path id="Path_20" data-name="Path 20" d="M324.933,284.75c1.549-.482,2.2-1.517,3.567-3.75,1.089-1.78-1.387-3.539-2.447-4.184a69.926,69.926,0,0,0-5.237,5.837C321.714,283.46,323.75,285.119,324.933,284.75Z" transform="translate(-320.816 -276.816)" fill="#efefef"/>
        </g>
        <g id="Group_14" data-name="Group 14" transform="translate(0.81)">
          <path id="Path_21" data-name="Path 21" d="M327.726,282c.193-.306.394-.632.618-1,1.089-1.78-1.387-3.539-2.447-4.184-2.042,2.086-3.067,4.818-4.427,6.582a12.568,12.568,0,0,0,4.163-3.493C326.591,278.616,328.427,279.48,327.726,282Z" transform="translate(-321.47 -276.816)" fill="#c8c9ca"/>
        </g>
      </g>
      <g id="Group_18" data-name="Group 18" transform="translate(59.848 74.334)">
        <g id="Group_16" data-name="Group 16">
          <path id="Path_22" data-name="Path 22" d="M326.552,287.177c-.055-1.621.708-2.577,2.369-4.6,1.322-1.613,3.8.147,4.755.936a70.305,70.305,0,0,1-3.789,6.865C328.829,289.792,326.591,288.416,326.552,287.177Z" transform="translate(-326.549 -281.916)" fill="#efefef"/>
        </g>
        <g id="Group_17" data-name="Group 17" transform="translate(1.634)">
          <path id="Path_23" data-name="Path 23" d="M327.868,283.487c.225-.284.464-.58.738-.913,1.322-1.613,3.8.147,4.755.936-1.3,2.616-3.542,4.479-4.759,6.345a12.543,12.543,0,0,1,1.93-5.08C331.434,283.446,330.013,282,327.868,283.487Z" transform="translate(-327.868 -281.916)" fill="#c8c9ca"/>
        </g>
      </g>
      <g id="Group_21" data-name="Group 21" transform="translate(51.772 80.532)">
        <g id="Group_19" data-name="Group 19">
          <path id="Path_24" data-name="Path 24" d="M320.193,289.755c.79-1.418,1.935-1.843,4.4-2.724,1.963-.7,3.177,2.083,3.592,3.254a70.562,70.562,0,0,1-6.786,3.929C320.8,293.17,319.588,290.835,320.193,289.755Z" transform="translate(-320.028 -286.92)" fill="#efefef"/>
        </g>
        <g id="Group_20" data-name="Group 20" transform="translate(0.811)">
          <path id="Path_25" data-name="Path 25" d="M323.337,287.433c.338-.126.7-.256,1.1-.4,1.963-.7,3.177,2.083,3.592,3.254-2.46,1.57-5.344,2.014-7.348,2.985a12.514,12.514,0,0,1,4.273-3.359C326.412,289.236,325.942,287.259,323.337,287.433Z" transform="translate(-320.683 -286.92)" fill="#c8c9ca"/>
        </g>
      </g>
      <g id="Group_24" data-name="Group 24" transform="translate(43.057 84.76)">
        <g id="Group_22" data-name="Group 22">
          <path id="Path_26" data-name="Path 26" d="M313.322,291.983c.955-1.117,2.047-1.289,4.4-1.63,1.868-.273,2.449,2.416,2.608,3.529a62.868,62.868,0,0,1-6.728,2.278C313.249,295.125,312.592,292.837,313.322,291.983Z" transform="translate(-312.991 -290.333)" fill="#efefef"/>
        </g>
        <g id="Group_23" data-name="Group 23" transform="translate(0.277)">
          <path id="Path_27" data-name="Path 27" d="M316.614,290.511c.323-.052.665-.1,1.052-.159,1.868-.273,2.449,2.416,2.608,3.529-2.465.957-5.107.836-7.058,1.339A11.341,11.341,0,0,1,317.608,293C319.022,292.663,318.958,290.825,316.614,290.511Z" transform="translate(-313.215 -290.333)" fill="#c8c9ca"/>
        </g>
      </g>
      <g id="Group_27" data-name="Group 27" transform="translate(45.929 74.546)">
        <g id="Group_25" data-name="Group 25">
          <path id="Path_28" data-name="Path 28" d="M318.6,289.311c1.624.007,2.556-.779,4.537-2.5,1.575-1.365-.251-3.789-1.066-4.729a69.884,69.884,0,0,0-6.759,3.977C315.924,287.106,317.361,289.3,318.6,289.311Z" transform="translate(-315.311 -282.087)" fill="#efefef"/>
        </g>
        <g id="Group_26" data-name="Group 26" transform="translate(0.545)">
          <path id="Path_29" data-name="Path 29" d="M322.139,287.577c.275-.233.567-.479.892-.762,1.575-1.365-.251-3.789-1.066-4.729-2.579,1.369-4.382,3.665-6.214,4.932a12.53,12.53,0,0,0,5.027-2.067C322.081,284.014,323.57,285.394,322.139,287.577Z" transform="translate(-315.751 -282.087)" fill="#c8c9ca"/>
        </g>
      </g>
      <g id="Group_30" data-name="Group 30" transform="translate(38.469 80.145)">
        <g id="Group_28" data-name="Group 28">
          <path id="Path_30" data-name="Path 30" d="M311.342,292c1.4.4,2.388-.058,4.5-1.061,1.686-.8.692-3.325.215-4.329a62.519,62.519,0,0,0-6.775,1.806C309.564,289.457,310.275,291.695,311.342,292Z" transform="translate(-309.287 -286.607)" fill="#efefef"/>
        </g>
        <g id="Group_29" data-name="Group 29" transform="translate(0.24)">
          <path id="Path_31" data-name="Path 31" d="M314.849,291.38c.3-.135.6-.28.951-.445,1.686-.8.692-3.325.215-4.329-2.55.561-4.653,2.106-6.535,2.759a11.2,11.2,0,0,0,4.827-.577C315.654,288.294,316.605,289.84,314.849,291.38Z" transform="translate(-309.481 -286.607)" fill="#c8c9ca"/>
        </g>
      </g>
      <g id="Group_33" data-name="Group 33" transform="translate(31.91 82.141)">
        <g id="Group_31" data-name="Group 31">
          <path id="Path_32" data-name="Path 32" d="M305.135,291.733c1,.45,1.792.217,3.485-.3,1.348-.415.883-2.413.637-3.215a46.564,46.564,0,0,0-5.265.608C304.085,289.637,304.371,291.388,305.135,291.733Z" transform="translate(-303.992 -288.219)" fill="#efefef"/>
        </g>
        <g id="Group_32" data-name="Group 32" transform="translate(0.076)">
          <path id="Path_33" data-name="Path 33" d="M307.847,291.658c.234-.067.482-.139.759-.224,1.347-.415.883-2.413.637-3.215-1.969.139-3.711,1.065-5.19,1.348a8.518,8.518,0,0,0,3.674.1C308.787,289.441,309.328,290.7,307.847,291.658Z" transform="translate(-304.053 -288.219)" fill="#c8c9ca"/>
        </g>
      </g>
      <g id="Group_34" data-name="Group 34" transform="translate(8.046 17.124)">
        <path id="Path_34" data-name="Path 34" d="M295.7,300.286a25.054,25.054,0,0,0,21.589.412c18.38-6.879,17.941-16.7,17.941-16.7s15.78,11.007-.492,18.863c-9.212,4.152-20.9,3.586-27.882,1.668a23.573,23.573,0,0,1-2.315-.752s.978,11.224,14.235,14.345a13.344,13.344,0,0,1-1.647-2.857s4.932,2.93,9.891.685a12.681,12.681,0,0,1-3.612-1.655s15.021-1.884,23.442-10.856,10.4-18.178,10.4-18.178,1.626-7.736,11.7-10.315c0,0-3.9-2.762-8.251-1.359,0,0,2.239-5.753,10.428-7.582,0,0-6.1-3-12.411-.4a24.4,24.4,0,0,0,3.463-5.315s-5.585,3.908-10.65,1.78c0,0-1.009-8.171-12-12.919s-9.413-13.436-9.413-13.436a12.48,12.48,0,0,0-4.459,8.329s-7.8-4.814-14.382-2.013c0,0,4.948.7,6.632,3.327,0,0-8.286.285-9.339,7.409,0,0,1.256-1.205,4.636-1.709,0,0-8.436,5.27-10.732,17.3C302.485,268.368,267.523,287.842,295.7,300.286Z" transform="translate(-284.724 -235.724)" fill="#e8973f"/>
      </g>
      <g id="Group_38" data-name="Group 38" transform="translate(25.896 32.727)">
        <g id="Group_35" data-name="Group 35" transform="translate(6.007)">
          <path id="Path_35" data-name="Path 35" d="M304.33,248.322a8.471,8.471,0,0,0-.344,1.449,6.1,6.1,0,0,1,2.028-1.076C305.461,248.561,304.9,248.437,304.33,248.322Z" transform="translate(-303.986 -248.322)" fill="#c97624"/>
        </g>
        <g id="Group_37" data-name="Group 37" transform="translate(0 0.71)">
          <g id="Group_36" data-name="Group 36">
            <path id="Path_36" data-name="Path 36" d="M323.754,253.225a9.193,9.193,0,0,1-8.494-1.755,31.359,31.359,0,0,0-6.783-2.575c-.388.316-.842.715-1.343,1.191.687.145,1.349.3,1.932.462,1.852.5,5.8,1.838,6.27,3.451s-2.421,8.52-3.5,9.815c-1.329,1.6-3.125,2.187-5.6,2a12.339,12.339,0,0,1-6.533-2.426,1.033,1.033,0,0,1-.186-.239c-.142.538-.271,1.092-.386,1.661,1.785,1.412,4.488,2,6.5,2.328,3.592.583,6.251-.516,7.8-2.99s3.453-7.551,4.24-8.146a1.513,1.513,0,0,1,2.068.427c.486.858-.3,6.169.146,9.052s2.445,4.947,5.975,5.836c2.621.66,6.549,1.38,8.839-.54,1.845-1.548,4.492-9.013,5.073-10.089a1.217,1.217,0,0,1,1.578-.632l.829-3.14C336.822,253.89,327.6,252.782,323.754,253.225Zm6.05,1.609c2.518.362,6.253,1.213,7.532,2.554s-.775,7.267-1.382,8.657-1.727,3.676-3.162,4.175a12.323,12.323,0,0,1-6.961-.362c-2.347-.8-3.765-2.055-4.35-4.051-.473-1.615.135-9,1.2-10.291S327.906,254.563,329.8,254.834Z" transform="translate(-299.136 -248.895)" fill="#c97624"/>
          </g>
        </g>
      </g>
      <g id="Group_39" data-name="Group 39" transform="translate(59.934 35.116)">
        <path id="Path_37" data-name="Path 37" d="M326.809,255.253S334,272.8,349.526,267.073s-8.633-15.883-8.633-15.883S324.692,247.333,326.809,255.253Z" transform="translate(-326.618 -250.251)" fill="#c97624"/>
      </g>
      <g id="Group_40" data-name="Group 40" transform="translate(8.046 61.293)">
        <path id="Path_38" data-name="Path 38" d="M333.317,273.695c-.69,7.483-11.678,13.916-19.938,15.342s-16.413-2.176-10.829-6.7,4.564-8.807,4.564-8.807l-10.643,6.006s-8.42-7.885-9.377-6.429c-3.967,6.037-4.087,13.072,8.609,18.678a25.054,25.054,0,0,0,21.589.412c18.38-6.879,17.941-16.7,17.941-16.7s15.78,11.007-.492,18.863c-9.212,4.152-20.9,3.586-27.882,1.668a23.57,23.57,0,0,1-2.315-.752c14.4,7.859,36.882,2.3,39.41-7.236S334,266.211,333.317,273.695Z" transform="translate(-284.724 -271.386)" fill="#c97624"/>
      </g>
      <g id="Group_41" data-name="Group 41" transform="translate(31.903 29.638)">
        <path id="Path_39" data-name="Path 39" d="M315.7,245.894c-8.339-.706-11.718,4.472-11.718,4.472s1.256-1.205,4.636-1.709A17.175,17.175,0,0,1,315.7,245.894Z" transform="translate(-303.986 -245.828)" fill="#c97624"/>
      </g>
      <g id="Group_42" data-name="Group 42" transform="translate(51.69 17.124)">
        <path id="Path_40" data-name="Path 40" d="M321.916,246.013c4.283,5.084,5.228,8.353,5.228,8.353s3.977.782,4.549-.149a33.725,33.725,0,0,0,1.608-4.008c-.676-.364-1.395-.715-2.166-1.049-10.988-4.751-9.413-13.436-9.413-13.436S317.635,240.93,321.916,246.013Z" transform="translate(-319.962 -235.724)" fill="#c97624"/>
      </g>
      <g id="Group_43" data-name="Group 43" transform="translate(58.858 29.467)">
        <path id="Path_41" data-name="Path 41" d="M352.4,257.922s-5.585,3.908-10.65,1.78c0,0-1.009-8.171-12-12.919a22.433,22.433,0,0,1-2.191-1.092h-.009s-5.565,8.08,2.849,13.216S346.5,264.461,352.4,257.922Z" transform="translate(-325.75 -245.69)" fill="#c97624"/>
      </g>
      <g id="Group_44" data-name="Group 44" transform="translate(27.868 47.409)">
        <path id="Path_42" data-name="Path 42" d="M367.319,260.176c-11.473.078-14.922,9.285-14.922,9.285a11.063,11.063,0,0,1,5.473.458c-7.437,2.885-6.231,14.687-16.117,25.877s-25.981,8.5-25.981,8.5a19.315,19.315,0,0,0,.961,3.935,20.045,20.045,0,0,1-7.67-4.211c-.105,3.225.925,4.249.925,4.249-5.36-2.674-9.261-10.318-9.261-10.318s.978,11.224,14.235,14.345a13.344,13.344,0,0,1-1.647-2.857s4.932,2.93,9.891.685a12.681,12.681,0,0,1-3.612-1.655s15.021-1.884,23.442-10.856,10.4-18.178,10.4-18.178,1.626-7.736,11.7-10.315c0,0-3.9-2.762-8.251-1.359C356.891,267.758,359.13,262.005,367.319,260.176Z" transform="translate(-300.728 -260.176)" fill="#c97624"/>
      </g>
      <g id="Group_73" data-name="Group 73" transform="translate(27.486 33.344)">
        <g id="Group_58" data-name="Group 58" transform="translate(21.564 0.701)">
          <g id="Group_47" data-name="Group 47" transform="translate(0.503 1.581)">
            <g id="Group_45" data-name="Group 45" transform="translate(0 3.049)">
              <path id="Path_43" data-name="Path 43" d="M326.87,266.714h0a12.009,12.009,0,0,0,1.454-5.285,14.026,14.026,0,0,0,0-1.531h0c0-.107-.014-.212-.021-.318l0-.043c-.01-.1-.019-.2-.029-.3l-.006-.054c-.01-.1-.022-.2-.035-.292,0-.015,0-.033-.006-.05-.014-.1-.028-.2-.043-.295l0-.024a11.305,11.305,0,0,0-.348-1.5l-.016-.05c-.023-.078-.051-.155-.077-.232-.007-.024-.015-.047-.024-.071-.026-.073-.052-.145-.079-.214l-.03-.078q-.039-.1-.082-.2c-.011-.025-.022-.051-.032-.077-.029-.066-.058-.132-.088-.2-.01-.021-.02-.042-.03-.061a7.154,7.154,0,0,0-.341-.644l-.022-.036c-.031-.051-.062-.1-.094-.149-.02-.03-.037-.059-.057-.089s-.059-.087-.089-.128-.045-.064-.069-.1-.058-.079-.087-.116l-.077-.1c-.029-.037-.058-.072-.089-.107s-.056-.063-.083-.094l-.088-.094c-.03-.032-.061-.062-.093-.093s-.056-.056-.084-.082-.074-.067-.11-.1l-.073-.064c-.061-.05-.123-.1-.185-.142-.021-.016-.043-.03-.066-.046-.043-.028-.085-.058-.13-.085-.026-.017-.053-.032-.081-.047s-.079-.048-.12-.068-.056-.03-.085-.045l-.12-.057c-.031-.011-.059-.025-.088-.036s-.083-.032-.125-.047l-.088-.028q-.065-.02-.13-.037c-.028-.007-.056-.015-.085-.021-.048-.011-.1-.021-.147-.029-.024,0-.047-.01-.073-.014-.073-.009-.147-.016-.223-.021-2.538-.139-4.792,3.353-5.035,7.8-.007.128-.012.256-.016.383v.049c0,.114,0,.227,0,.341v0a11.828,11.828,0,0,0,.8,4.424,14.105,14.105,0,0,0-1.676.8s6.471-1.251,10.518,2.128A6.721,6.721,0,0,0,326.87,266.714Z" transform="translate(-318.237 -253.125)" fill="#c97624"/>
            </g>
            <g id="Group_46" data-name="Group 46" transform="translate(3.055)">
              <path id="Path_44" data-name="Path 44" d="M329.828,256.484s-.362-7-9.124-5.648C320.7,250.836,327.206,251.91,329.828,256.484Z" transform="translate(-320.704 -250.663)" fill="#c97624"/>
            </g>
          </g>
          <g id="Group_57" data-name="Group 57">
            <g id="Group_49" data-name="Group 49" transform="translate(0.875 3.05)">
              <g id="Group_48" data-name="Group 48">
                <path id="Path_45" data-name="Path 45" d="M323.595,251.853c-2.539-.14-4.793,3.353-5.036,7.8a12.189,12.189,0,0,0,.78,5.2c3.322-1.319,5.562-.514,6.957.585a12.009,12.009,0,0,0,1.455-5.285C327.993,255.707,326.133,251.992,323.595,251.853Z" transform="translate(-318.538 -251.849)" fill="#e1e1e1"/>
              </g>
            </g>
            <g id="Group_50" data-name="Group 50" transform="translate(1.677 7.977)">
              <path id="Path_46" data-name="Path 46" d="M323.413,255.83c-1.745-.094-3.295,2.3-3.461,5.36-.047.851.4,1.786-.768,2.715a9.879,9.879,0,0,1,6.957.585c-.354-.877.076-1.98.129-2.954C326.437,258.48,325.158,255.925,323.413,255.83Z" transform="translate(-319.185 -255.827)" fill="#fff"/>
            </g>
            <g id="Group_51" data-name="Group 51" transform="translate(0.875 3.05)">
              <path id="Path_47" data-name="Path 47" d="M318.72,261.1c.243-4.446,2.5-7.938,5.036-7.8,1.94.105,3.483,2.3,3.994,5.32-.2-3.738-1.915-6.648-4.155-6.77-2.539-.14-4.793,3.353-5.036,7.8a13.421,13.421,0,0,0,.161,2.97A14.431,14.431,0,0,1,318.72,261.1Z" transform="translate(-318.538 -251.849)" fill="#471d0b"/>
            </g>
            <g id="Group_53" data-name="Group 53" transform="translate(2.765 9.271)">
              <g id="Group_52" data-name="Group 52">
                <path id="Path_48" data-name="Path 48" d="M322.641,256.873c-1.293-.072-2.442,1.709-2.568,3.975a6.245,6.245,0,0,0,.4,2.653,3.376,3.376,0,0,1,3.546.3,6.126,6.126,0,0,0,.742-2.694C324.885,258.838,323.936,256.944,322.641,256.873Z" transform="translate(-320.064 -256.871)" fill="#471d0b"/>
              </g>
            </g>
            <g id="Group_54" data-name="Group 54" transform="translate(0 15.37)">
              <path id="Path_49" data-name="Path 49" d="M317.831,263.281s6.473-1.25,10.519,2.129C328.35,265.41,325.579,258.971,317.831,263.281Z" transform="translate(-317.831 -261.795)" fill="#471d0b"/>
            </g>
            <g id="Group_55" data-name="Group 55" transform="translate(3.055)">
              <path id="Path_50" data-name="Path 50" d="M320.3,249.559s6.5,1.075,9.124,5.649C329.422,255.208,329.061,248.207,320.3,249.559Z" transform="translate(-320.298 -249.386)" fill="#471d0b"/>
            </g>
            <g id="Group_56" data-name="Group 56" transform="translate(4.329 11.075)">
              <path id="Path_51" data-name="Path 51" d="M322.836,260.325c-.017,1.095-.38-.487-.8-.493s-.729,1.566-.711.469.369-1.979.786-1.973S322.854,259.228,322.836,260.325Z" transform="translate(-321.326 -258.328)" fill="#fff"/>
            </g>
          </g>
        </g>
        <g id="Group_72" data-name="Group 72">
          <g id="Group_61" data-name="Group 61" transform="translate(0 0.953)">
            <g id="Group_59" data-name="Group 59" transform="translate(0 2.642)">
              <path id="Path_52" data-name="Path 52" d="M302.768,260.8h0a10.12,10.12,0,0,1,1.113-4.475,12.01,12.01,0,0,1,.63-1.121h0c.05-.074.1-.15.147-.224l.021-.031c.047-.071.1-.139.144-.207a.422.422,0,0,1,.027-.038c.048-.068.1-.135.146-.2l.025-.033c.051-.067.1-.134.154-.2l.012-.015a9.521,9.521,0,0,1,.876-.956.348.348,0,0,1,.031-.03c.051-.048.1-.094.151-.14.017-.012.032-.027.05-.042.047-.042.1-.083.145-.125l.053-.045.145-.115.054-.042c.05-.037.1-.074.147-.109.015-.012.031-.024.047-.035a6.085,6.085,0,0,1,.515-.329l.03-.019.13-.071.079-.041.119-.058.088-.041c.038-.017.077-.033.114-.048s.062-.027.1-.038.072-.028.108-.041l.1-.036.1-.032c.036-.011.071-.021.107-.03l.1-.026q.061-.015.123-.026l.079-.016c.064-.012.129-.021.193-.03l.067-.006.13-.009h.2l.079,0,.113.007.079.01.11.017.077.015a1.113,1.113,0,0,1,.111.027c.024.006.048.011.072.019.04.014.078.026.118.041.021.007.04.012.058.021.059.022.116.047.173.074,1.917.946,2.132,4.435.477,7.794-.048.1-.1.192-.146.286l-.021.037c-.045.085-.09.168-.136.251l0,.006a9.934,9.934,0,0,1-2.41,2.911,12.077,12.077,0,0,1,.9,1.278s-4.228-3.584-8.588-2.776A5.643,5.643,0,0,1,302.768,260.8Z" transform="translate(-300.42 -251.722)" fill="#c97624"/>
            </g>
            <g id="Group_60" data-name="Group 60" transform="translate(4.209)">
              <path id="Path_53" data-name="Path 53" d="M303.818,251.921s3.152-4.984,9.019-.38C312.837,251.541,307.627,249.648,303.818,251.921Z" transform="translate(-303.818 -249.589)" fill="#c97624"/>
            </g>
          </g>
          <g id="Group_71" data-name="Group 71" transform="translate(1.021)">
            <g id="Group_63" data-name="Group 63" transform="translate(2.348 2.641)">
              <g id="Group_62" data-name="Group 62">
                <path id="Path_54" data-name="Path 54" d="M310.721,251.19c1.918.944,2.132,4.434.477,7.793a10.236,10.236,0,0,1-2.716,3.493c-1.891-2.336-3.867-2.669-5.342-2.44a10.075,10.075,0,0,1,1.113-4.472C305.907,252.2,308.805,250.245,310.721,251.19Z" transform="translate(-303.14 -250.952)" fill="#e1e1e1"/>
              </g>
            </g>
            <g id="Group_64" data-name="Group 64" transform="translate(2.348 6.338)">
              <path id="Path_55" data-name="Path 55" d="M308.71,254.1c1.319.65,1.465,3.048.328,5.358-.316.64-1.033,1.142-.556,2.3a8.322,8.322,0,0,0-5.342-2.44c.622-.5.762-1.483,1.123-2.218C305.4,254.8,307.392,253.451,308.71,254.1Z" transform="translate(-303.14 -253.937)" fill="#fff"/>
            </g>
            <g id="Group_65" data-name="Group 65" transform="translate(4.092 2.641)">
              <path id="Path_56" data-name="Path 56" d="M310.146,259.981c1.655-3.36,1.442-6.849-.477-7.794-1.466-.722-3.5.254-5.121,2.253,1.691-2.655,4.145-4.083,5.837-3.25,1.919.944,2.132,4.434.477,7.793a11.268,11.268,0,0,1-1.343,2.112A12.171,12.171,0,0,0,310.146,259.981Z" transform="translate(-304.548 -250.952)" fill="#471d0b"/>
            </g>
            <g id="Group_67" data-name="Group 67" transform="translate(3.413 7.315)">
              <g id="Group_66" data-name="Group 66">
                <path id="Path_57" data-name="Path 57" d="M307.866,254.846c.977.482,1.086,2.26.243,3.972a5.229,5.229,0,0,1-1.383,1.781A2.839,2.839,0,0,0,304,259.356a5.166,5.166,0,0,1,.569-2.281C305.411,255.363,306.888,254.366,307.866,254.846Z" transform="translate(-304 -254.725)" fill="#471d0b"/>
              </g>
            </g>
            <g id="Group_68" data-name="Group 68" transform="translate(0 11.663)">
              <path id="Path_58" data-name="Path 58" d="M309.832,262.016s-4.228-3.583-8.588-2.774C301.244,259.242,305.929,255.661,309.832,262.016Z" transform="translate(-301.244 -258.236)" fill="#471d0b"/>
            </g>
            <g id="Group_69" data-name="Group 69" transform="translate(4.209)">
              <path id="Path_59" data-name="Path 59" d="M313.66,250.772s-5.211-1.892-9.018.379C304.642,251.151,307.794,246.168,313.66,250.772Z" transform="translate(-304.642 -248.82)" fill="#471d0b"/>
            </g>
            <g id="Group_70" data-name="Group 70" transform="translate(5.232 8.82)">
              <path id="Path_60" data-name="Path 60" d="M305.586,257.137c-.44.81.479-.2.789-.032s-.113,1.448.327.637.545-1.6.238-1.77S306.025,256.327,305.586,257.137Z" transform="translate(-305.469 -255.941)" fill="#fff"/>
            </g>
          </g>
        </g>
      </g>
      <g id="Group_74" data-name="Group 74" transform="translate(62.522 50.593)">
        <path id="Path_61" data-name="Path 61" d="M328.708,262.747a22.1,22.1,0,0,0,13.566,4.783C350.379,267.515,331.45,275.6,328.708,262.747Z" transform="translate(-328.708 -262.747)" fill="#f4b069"/>
      </g>
      <g id="Group_76" data-name="Group 76" transform="translate(9.5 62.114)">
        <g id="Group_75" data-name="Group 75">
          <path id="Path_62" data-name="Path 62" d="M294.715,284.155s-7.153-3.5-8.659-9.957c-1.208-5.175,4.74,1.248,8.475,2.027s10.7-5.645,12.125-3.863C309.036,275.331,294.715,284.155,294.715,284.155Z" transform="translate(-285.898 -272.049)" fill="#ef604a"/>
        </g>
      </g>
      <g id="Group_77" data-name="Group 77" transform="translate(9.5 62.123)">
        <path id="Path_63" data-name="Path 63" d="M306.027,272.056c-2.6,3.776-11.5,9.263-11.5,9.263s-6.438-3.152-8.382-9c-.277.234-.334.806-.084,1.874,1.506,6.46,8.659,9.957,8.659,9.957s14.321-8.823,11.942-11.792A.856.856,0,0,0,306.027,272.056Z" transform="translate(-285.897 -272.056)" fill="#e03e2e"/>
      </g>
      <g id="Group_83" data-name="Group 83" transform="translate(56.035 7.688)">
        <g id="Group_78" data-name="Group 78">
          <path id="Path_64" data-name="Path 64" d="M323.47,247.68s2.124,8.059,13.548,6.434c0,0-3.826-17.2,16.276-24.382C353.294,229.732,334.067,220.108,323.47,247.68Z" transform="translate(-323.47 -228.106)" fill="#afb0c1"/>
        </g>
        <g id="Group_79" data-name="Group 79" transform="translate(1.907 13.298)">
          <path id="Path_65" data-name="Path 65" d="M334.34,242.741a12.091,12.091,0,0,1-8.352-3.9c-.332.6-.656,1.229-.978,1.883C331.434,245.5,334.34,242.741,334.34,242.741Z" transform="translate(-325.01 -238.842)" fill="#848595"/>
        </g>
        <g id="Group_80" data-name="Group 80" transform="translate(7.003 5.787)">
          <path id="Path_66" data-name="Path 66" d="M335.084,238.375s-3.792-3.011-4.521-5.6q-.726.708-1.439,1.526S330.6,237.268,335.084,238.375Z" transform="translate(-329.124 -232.778)" fill="#848595"/>
        </g>
        <g id="Group_81" data-name="Group 81" transform="translate(13.176 1.472)">
          <path id="Path_67" data-name="Path 67" d="M337.6,233.832a19.6,19.6,0,0,1-1.893-4.538q-.8.34-1.6.775A7.7,7.7,0,0,0,337.6,233.832Z" transform="translate(-334.108 -229.294)" fill="#848595"/>
        </g>
        <g id="Group_82" data-name="Group 82" transform="translate(0 1.627)">
          <path id="Path_68" data-name="Path 68" d="M337.018,253.8s-3.826-17.2,16.276-24.382c0,0-11.554.316-14.705,8.277s-11.4,12.322-15.119,9.671C323.47,247.367,325.594,255.426,337.018,253.8Z" transform="translate(-323.47 -229.419)" fill="#848595"/>
        </g>
      </g>
      <g id="Group_84" data-name="Group 84" transform="translate(34.609 23.06)">
        <path id="Path_69" data-name="Path 69" d="M312.8,244.224a14.326,14.326,0,0,1,4.009.23c-5.089-5.656-10.642-3.557-10.642-3.557S311.119,241.593,312.8,244.224Z" transform="translate(-306.171 -240.516)" fill="#c97624"/>
      </g>
      <g id="Group_85" data-name="Group 85" transform="translate(28.538 66.504)">
        <path id="Path_70" data-name="Path 70" d="M301.269,284.7s13.906,2.289,20.51-5.852S306.68,279.8,301.269,284.7Z" transform="translate(-301.269 -275.594)" fill="#f4b069"/>
      </g>
      <g id="Group_86" data-name="Group 86" transform="translate(13.861 53.45)">
        <path id="Path_71" data-name="Path 71" d="M289.419,273.855s3.384-6.656,10.131-8.493S301.64,270.346,289.419,273.855Z" transform="translate(-289.419 -265.054)" fill="#f4b069"/>
      </g>
      <g id="Group_87" data-name="Group 87" transform="translate(25.85 33.01)" opacity="0.31">
        <path id="Path_72" data-name="Path 72" d="M309.076,249.5c-2.452-.666-6.22-1.365-7.925-.64s-1.818,3.973-1.813,5.489-.741,6.958.38,7.985a12.33,12.33,0,0,0,6.533,2.428c2.475.191,4.271-.4,5.6-2,1.074-1.3,3.96-8.205,3.5-9.817S310.927,250,309.076,249.5Z" transform="translate(-299.098 -248.55)" fill="#fff"/>
      </g>
      <g id="Group_88" data-name="Group 88" transform="translate(27.368 33.012)" opacity="0.51">
        <path id="Path_73" data-name="Path 73" d="M303.308,248.561a6.025,6.025,0,0,0-2.45.3,1.828,1.828,0,0,0-.534.353l4.181,15.344a12.527,12.527,0,0,0,1.453.2,9.6,9.6,0,0,0,1.868-.023Z" transform="translate(-300.324 -248.552)" fill="#fff"/>
      </g>
      <g id="Group_89" data-name="Group 89" transform="translate(31.936 33.161)" opacity="0.51">
        <path id="Path_74" data-name="Path 74" d="M305.7,248.952c-.557-.109-1.127-.207-1.689-.28l4.332,15.717a5.115,5.115,0,0,0,1.3-.682Z" transform="translate(-304.013 -248.672)" fill="#fff"/>
      </g>
      <g id="Group_91" data-name="Group 91" transform="translate(68.047 45.726)">
        <path id="Path_75" data-name="Path 75" d="M333.265,275.159l.4-.583,2.326,1.573-.4.585a.569.569,0,0,1-.784.152l-1.392-.943A.568.568,0,0,1,333.265,275.159Z" transform="translate(-333.169 -255.059)" fill="#c2c1c0"/>
        <path id="Path_76" data-name="Path 76" d="M334.379,275.914l.4-.585-1.115-.753-.4.583a.568.568,0,0,0,.151.784l1.116.754A.566.566,0,0,1,334.379,275.914Z" transform="translate(-333.169 -255.059)" fill="#acacad"/>
        <path id="Path_77" data-name="Path 77" d="M345.417,262.607a4.53,4.53,0,0,0-1.92-2.9,5.4,5.4,0,0,0-5.261-.368c-2.1,3.1-1.957,2.889-1.962,2.9a5.4,5.4,0,0,0,2.3,4.749,3.8,3.8,0,0,0,1.869.653c-.32.474-6.435,9.507-6.943,10.258a.345.345,0,0,0,.094.481l2.314,1.568a.339.339,0,0,0,.474-.089c.265-.393,7.271-10.741,7.584-11.2C343.96,268.657,346.14,265.471,345.417,262.607Z" transform="translate(-333.105 -258.818)" fill="#ecebeb"/>
        <path id="Path_78" data-name="Path 78" d="M339.228,266.319a1.989,1.989,0,0,0,.276-1.777.334.334,0,0,0-.45-.152.338.338,0,0,0-.152.452c.255.513-.4,1.34-.4,1.35A3.781,3.781,0,0,0,339.228,266.319Z" transform="translate(-331.896 -257.497)" fill="#c2c1c0"/>
        <path id="Path_79" data-name="Path 79" d="M342.012,264.154a4.44,4.44,0,0,0-.045-1.84,3.337,3.337,0,0,0-.133-.493.336.336,0,1,1,.635-.22,5.255,5.255,0,0,1,.206,2.665.337.337,0,1,1-.664-.112Z" transform="translate(-331.106 -258.208)" fill="#545454"/>
        <path id="Path_80" data-name="Path 80" d="M339.03,261.382a.636.636,0,1,1-.882.17A.636.636,0,0,1,339.03,261.382Z" transform="translate(-332.007 -258.232)" fill="#545454"/>
        <path id="Path_81" data-name="Path 81" d="M340.938,266a.336.336,0,1,1,.308.464A.334.334,0,0,1,340.938,266Z" transform="translate(-331.322 -257.155)" fill="#545454"/>
        <g id="Group_90" data-name="Group 90" transform="translate(0.329)">
          <path id="Path_82" data-name="Path 82" d="M343.486,260.13a4.818,4.818,0,0,0-.534-.421,5.4,5.4,0,0,0-5.261-.368c-2.1,3.1-1.957,2.889-1.962,2.9a5.4,5.4,0,0,0,2.3,4.749,3.684,3.684,0,0,0,.569.32,4.363,4.363,0,0,1-.6-5.614l.032-.046A4.36,4.36,0,0,1,343.486,260.13Z" transform="translate(-332.89 -258.818)" fill="#d6d6d5"/>
          <path id="Path_83" data-name="Path 83" d="M334.614,277.3l6.944-10.256c1.08-1.6-.846-2.538-.846-2.538a1.887,1.887,0,0,1-.276,1.777h0c-.407.6-6.536,9.654-6.943,10.258a.343.343,0,0,0,.094.481l1.12.76A.346.346,0,0,1,334.614,277.3Z" transform="translate(-333.434 -257.461)" fill="#d6d6d5"/>
        </g>
        <path id="Path_84" data-name="Path 84" d="M336.007,262.618a.635.635,0,0,1-.171-.883l1.513-2.236a.635.635,0,0,1,1.053.712l-1.513,2.236A.636.636,0,0,1,336.007,262.618Z" transform="translate(-332.558 -258.722)" fill="#545454"/>
        <path id="Path_85" data-name="Path 85" d="M336.962,260.994a.636.636,0,0,1-.171-.883l-.955,1.411a.635.635,0,1,0,1.053.712l.955-1.411A.635.635,0,0,1,336.962,260.994Z" transform="translate(-332.558 -258.509)" fill="#424343"/>
        <path id="Path_86" data-name="Path 86" d="M335.483,275.216l-1-.68a.336.336,0,1,1,.377-.556l1,.677a.337.337,0,1,1-.377.559Z" transform="translate(-332.891 -255.215)" fill="#c2c1c0"/>
      </g>
      <g id="Group_94" data-name="Group 94" transform="translate(25.85 33.01)">
        <g id="Group_93" data-name="Group 93">
          <g id="Group_92" data-name="Group 92">
            <path id="Path_87" data-name="Path 87" d="M315.345,252.947c-.466-1.613-4.418-2.946-6.27-3.449-2.452-.666-6.22-1.365-7.925-.64s-1.818,3.973-1.813,5.489-.741,6.958.38,7.985a12.33,12.33,0,0,0,6.533,2.428c2.475.191,4.271-.4,5.6-2C312.924,261.468,315.809,254.558,315.345,252.947Zm-3.857,9.542c-1.247,1.5-2.932,2.05-5.25,1.871a11.579,11.579,0,0,1-6.126-2.276c-1.051-.964-.3-6.245-.3-7.668s.1-4.467,1.7-5.147,5.131-.025,7.432.6c1.735.472,5.441,1.724,5.877,3.236S312.5,261.273,311.488,262.488Z" transform="translate(-299.098 -248.55)" fill="#151b24"/>
          </g>
        </g>
      </g>
      <g id="Group_98" data-name="Group 98" transform="translate(65.303 25.812)">
        <g id="Group_96" data-name="Group 96">
          <g id="Group_95" data-name="Group 95">
            <path id="Path_88" data-name="Path 88" d="M365.149,252.557s-8.961,6.76-16.2-1.048-8.686-10.276-13.825-7.909-6.029,12.5.191,20.275,22.977,6.751,30.03-4.726C373.6,245.7,365.149,252.557,365.149,252.557Z" transform="translate(-330.953 -242.738)" fill="#e8973f"/>
          </g>
        </g>
        <g id="Group_97" data-name="Group 97" transform="translate(4.812 1.93)">
          <path id="Path_89" data-name="Path 89" d="M334.838,245.742s4.261-4.134,8.051,1.579,8.484,9.851,15.394,8.137S346.692,268.716,334.838,245.742Z" transform="translate(-334.838 -244.297)" fill="#f4b069"/>
        </g>
      </g>
      <g id="Group_101" data-name="Group 101" transform="translate(23.156 30.859)">
        <g id="Group_100" data-name="Group 100">
          <g id="Group_99" data-name="Group 99">
            <path id="Path_90" data-name="Path 90" d="M324.282,252.588a9.2,9.2,0,0,1-8.494-1.755c-3.352-1.93-12.262-4.569-18.38-3.919l-.484,3.21a1.218,1.218,0,0,1,1.2,1.205c.107,1.219-.941,9.015.139,11.167,1.343,2.672,5.234,3.567,7.9,4,3.592.582,6.251-.516,7.8-2.99s3.453-7.551,4.24-8.146a1.511,1.511,0,0,1,2.067.427c.487.858-.295,6.168.147,9.052s2.445,4.947,5.975,5.836c2.621.66,6.549,1.38,8.839-.54,1.845-1.548,4.492-9.013,5.073-10.089a1.218,1.218,0,0,1,1.578-.633l.829-3.14C337.35,253.254,328.124,252.145,324.282,252.588Zm-11.914,10.59c-1.329,1.6-3.125,2.186-5.6,2a12.33,12.33,0,0,1-6.533-2.428c-1.121-1.027-.375-6.468-.38-7.985s.107-4.765,1.813-5.489,5.473-.026,7.925.64c1.852.5,5.8,1.837,6.269,3.449S313.442,261.882,312.369,263.178Zm24.113,2.231c-.606,1.39-1.725,3.675-3.162,4.173a12.311,12.311,0,0,1-6.961-.362c-2.347-.8-3.765-2.053-4.35-4.049-.473-1.615.135-9,1.2-10.291s5.223-.955,7.122-.684c2.518.362,6.253,1.214,7.532,2.555S337.089,264.017,336.482,265.408Z" transform="translate(-296.924 -246.814)" fill="#212939"/>
          </g>
        </g>
      </g>
      <g id="Group_106" data-name="Group 106" transform="translate(23.156 30.956)">
        <g id="Group_105" data-name="Group 105">
          <g id="Group_102" data-name="Group 102" transform="translate(3.254 1.325)">
            <path id="Path_91" data-name="Path 91" d="M315.388,252.359c-.466-1.611-4.419-2.946-6.27-3.449-2.454-.665-6.221-1.365-7.927-.64-.981.417-1.434,1.671-1.641,2.948A3.05,3.05,0,0,1,301.042,249c1.705-.725,5.473-.026,7.925.64,1.852.5,5.8,1.837,6.27,3.449a2.724,2.724,0,0,1,.025,1.106A3.742,3.742,0,0,0,315.388,252.359Z" transform="translate(-299.551 -247.962)" fill="#12171e"/>
          </g>
          <g id="Group_103" data-name="Group 103">
            <path id="Path_92" data-name="Path 92" d="M342.032,258.668a1.217,1.217,0,0,0-1.577.633c-.582,1.076-3.229,8.542-5.073,10.09-2.291,1.918-6.22,1.2-8.841.539-3.529-.891-5.534-2.951-5.976-5.836s.343-8.194-.145-9.053a1.512,1.512,0,0,0-2.067-.427c-.788.594-2.693,5.674-4.241,8.146s-4.207,3.572-7.8,2.99c-2.668-.432-6.561-1.329-7.9-4-1.08-2.153-.032-9.949-.14-11.167a1.217,1.217,0,0,0-1.2-1.206l.374-2.486-.041,0-.484,3.21a1.218,1.218,0,0,1,1.2,1.205c.107,1.219-.941,9.015.139,11.167,1.343,2.672,5.234,3.567,7.9,4,3.592.582,6.251-.516,7.8-2.99s3.453-7.551,4.24-8.146a1.511,1.511,0,0,1,2.067.427c.487.858-.295,6.168.147,9.052s2.445,4.947,5.975,5.836c2.621.66,6.549,1.38,8.839-.54,1.845-1.548,4.492-9.013,5.073-10.089a1.218,1.218,0,0,1,1.578-.633l.829-3.14-.037-.019Z" transform="translate(-296.924 -246.892)" fill="#12171e"/>
          </g>
          <g id="Group_104" data-name="Group 104" transform="translate(25.825 6.304)">
            <path id="Path_93" data-name="Path 93" d="M333.041,254.79c-1.279-1.341-5.016-2.192-7.533-2.553-1.9-.274-6.056-.614-7.122.68a3.749,3.749,0,0,0-.612,1.735,2.7,2.7,0,0,1,.462-1.006c1.065-1.3,5.223-.955,7.122-.684,2.518.362,6.253,1.214,7.531,2.555a3.053,3.053,0,0,1,.488,2.629C333.7,256.892,333.777,255.561,333.041,254.79Z" transform="translate(-317.775 -251.982)" fill="#12171e"/>
          </g>
        </g>
      </g>
      <g id="Group_107" data-name="Group 107" transform="translate(48.079 37.988)" opacity="0.31">
        <path id="Path_94" data-name="Path 94" d="M333.064,255.378c-1.278-1.341-5.014-2.193-7.532-2.555-1.9-.271-6.056-.612-7.122.684s-1.675,8.676-1.2,10.291c.585,2,2,3.247,4.35,4.049a12.311,12.311,0,0,0,6.961.362c1.437-.5,2.556-2.783,3.162-4.173S334.342,256.718,333.064,255.378Z" transform="translate(-317.047 -252.57)" fill="#fff"/>
      </g>
      <g id="Group_108" data-name="Group 108" transform="translate(50.679 37.988)" opacity="0.51">
        <path id="Path_95" data-name="Path 95" d="M326.609,268.5l-4.415-15.923a13.271,13.271,0,0,0-2.512.135h0a1.856,1.856,0,0,0-.533.355l4.173,15.322A13.213,13.213,0,0,0,326.609,268.5Z" transform="translate(-319.146 -252.57)" fill="#fff"/>
      </g>
      <g id="Group_109" data-name="Group 109" transform="translate(55.295 38.093)" opacity="0.51">
        <path id="Path_96" data-name="Path 96" d="M324.143,252.8c-.355-.051-.79-.1-1.27-.149l4.258,15.534a3.114,3.114,0,0,0,1.217-.878l-3.816-14.448Z" transform="translate(-322.873 -252.654)" fill="#fff"/>
      </g>
      <g id="Group_112" data-name="Group 112" transform="translate(48.079 37.988)">
        <g id="Group_111" data-name="Group 111">
          <g id="Group_110" data-name="Group 110">
            <path id="Path_97" data-name="Path 97" d="M317.209,263.8c.585,2,2,3.246,4.348,4.049a12.312,12.312,0,0,0,6.961.362c1.437-.5,2.558-2.783,3.163-4.173s2.66-7.317,1.381-8.657-5.015-2.193-7.53-2.555c-1.9-.271-6.056-.613-7.123.684S316.736,262.182,317.209,263.8Zm1.62-9.941c1-1.214,4.9-.894,6.679-.639,2.359.339,5.862,1.137,7.061,2.394s-.78,7-1.349,8.3-1.619,3.446-2.966,3.914a11.553,11.553,0,0,1-6.526-.341c-2.2-.753-3.53-1.925-4.078-3.8C317.207,262.174,317.831,255.073,318.829,253.857Z" transform="translate(-317.047 -252.569)" fill="#151b24"/>
          </g>
        </g>
      </g>
    </g>
  </g>
</svg>
